<?xml version="1.0" standalone="no"?>
<!DOCTYPE svg PUBLIC "-//W3C//DTD SVG 20010904//EN"
 "http://www.w3.org/TR/2001/REC-SVG-20010904/DTD/svg10.dtd">
<svg version="1.0" xmlns="http://www.w3.org/2000/svg"
 width="3927.000000pt" height="3928.000000pt" viewBox="0 0 3927.000000 3928.000000"
 preserveAspectRatio="xMidYMid meet">

<g transform="translate(0.000000,3928.000000) scale(0.100000,-0.100000)"
fill="#000000" stroke="none">
<path d="M12743 36298 c-15 -4 -31 -14 -35 -22 -5 -9 -18 -13 -30 -11 -12 3
-25 1 -28 -3 -10 -14 -59 -42 -75 -42 -8 0 -15 -7 -15 -15 0 -8 -5 -15 -11
-15 -6 0 -21 -13 -35 -30 -16 -19 -31 -27 -42 -24 -14 5 -15 4 -2 -5 12 -8 7
-17 -28 -49 -23 -21 -42 -43 -42 -49 0 -6 -11 -22 -25 -37 -14 -15 -25 -31
-25 -37 0 -5 -11 -27 -25 -48 -13 -22 -26 -50 -29 -63 -2 -13 -11 -44 -20 -70
-9 -25 -14 -53 -10 -61 4 -10 -2 -14 -21 -14 -20 0 -34 10 -56 40 -29 41 -65
69 -129 102 -96 50 -148 74 -180 83 -19 6 -60 18 -90 28 -41 13 -85 18 -170
17 -101 -1 -124 -4 -188 -29 -87 -34 -138 -79 -176 -154 -35 -70 -41 -136 -21
-236 16 -78 84 -240 108 -259 7 -5 29 -35 49 -65 47 -71 223 -252 267 -275 18
-9 54 -32 80 -50 113 -80 267 -152 428 -199 80 -24 110 -27 230 -27 76 0 156
2 178 5 22 3 46 1 54 -3 19 -12 101 33 101 56 0 7 6 16 13 20 6 4 24 24 38 43
15 19 36 46 48 59 11 13 21 28 21 32 0 4 15 29 33 54 62 88 72 103 92 136 49
82 78 139 101 199 14 36 36 92 49 125 14 33 31 86 39 117 8 31 19 65 24 75 5
10 12 50 16 88 4 39 9 87 12 109 8 79 -21 227 -59 303 -49 96 -132 170 -220
196 -61 17 -140 19 -194 5z m139 -101 c21 -9 42 -17 48 -17 5 0 10 -4 10 -8 0
-5 10 -14 23 -21 12 -7 31 -24 41 -38 11 -15 14 -23 8 -19 -18 11 -14 -2 13
-42 14 -20 25 -40 25 -44 0 -14 -80 -9 -81 5 0 10 -2 10 -6 0 -2 -8 -22 -13
-44 -13 -28 0 -39 -4 -39 -15 0 -11 -11 -15 -40 -15 -36 0 -40 -2 -40 -25 0
-20 -5 -25 -25 -25 -22 0 -25 -4 -25 -40 0 -29 -4 -40 -15 -40 -11 0 -15 11
-15 40 0 36 -3 40 -24 40 -37 0 -56 10 -56 31 0 15 -7 19 -40 19 -27 0 -40 -4
-40 -13 0 -19 -42 -39 -71 -35 -22 3 -24 -1 -27 -40 l-3 -43 -40 3 c-36 2 -39
4 -39 31 0 25 59 115 83 125 4 2 7 13 7 24 0 11 8 22 20 25 11 3 20 12 20 19
0 8 4 14 9 14 4 0 22 14 39 30 18 17 36 30 42 30 5 0 10 5 10 10 0 6 7 10 16
10 9 0 27 9 41 20 14 11 41 20 59 20 18 0 35 3 37 8 9 13 81 6 119 -11z m138
-247 c0 -5 -4 -10 -10 -10 -5 0 -10 5 -10 10 0 6 5 10 10 10 6 0 10 -4 10 -10z
m40 0 c13 -8 13 -10 -2 -10 -9 0 -20 5 -23 10 -8 13 5 13 25 0z m6 -99 c16 13
18 1 4 -21 -9 -13 -11 -13 -20 0 -5 8 -9 24 -8 35 1 17 1 16 5 -3 4 -19 7 -21
19 -11z m-1516 -1 c0 -5 -4 -10 -10 -10 -5 0 -10 5 -10 10 0 6 5 10 10 10 6 0
10 -4 10 -10z m50 6 c0 -2 -7 -6 -15 -10 -8 -3 -15 -1 -15 4 0 6 7 10 15 10 8
0 15 -2 15 -4z m-80 -26 c0 -5 -9 -10 -21 -10 -11 0 -17 5 -14 10 3 6 13 10
21 10 8 0 14 -4 14 -10z m277 -4 c9 -15 107 -41 123 -31 6 3 10 -3 10 -15 0
-12 4 -18 11 -15 6 4 8 14 5 22 -3 8 -1 11 4 8 6 -3 10 -13 10 -20 0 -19 -48
-31 -63 -16 -9 9 -7 11 8 6 18 -6 19 -6 2 5 -10 6 -37 13 -60 16 -23 2 -43 8
-45 14 -6 16 -42 12 -42 -4 0 -18 -17 -29 -31 -21 -7 5 -3 14 10 26 12 11 21
24 21 29 0 15 28 12 37 -4z m93 -6 c12 -8 9 -10 -12 -10 -16 0 -28 5 -28 10 0
13 20 13 40 0z m510 1 c0 -5 9 -7 20 -4 16 4 20 0 20 -20 0 -16 -8 -31 -20
-37 -17 -9 -20 -8 -20 7 0 13 -5 10 -21 -12 -13 -19 -18 -41 -16 -60 6 -40 -1
-55 -23 -55 -23 0 -32 44 -14 67 7 10 14 28 14 41 0 12 5 21 11 20 6 -2 14 3
16 10 3 8 -1 10 -11 6 -11 -4 -16 -1 -16 11 0 13 6 16 28 11 15 -3 21 -3 14 0
-6 3 -10 10 -6 15 7 12 24 12 24 0z m674 -38 c4 -9 3 -19 0 -22 -4 -3 -9 0
-11 7 -3 6 -9 10 -14 6 -5 -3 -9 4 -9 15 0 23 25 19 34 -6z m-1644 7 c0 -5 -4
-10 -10 -10 -5 0 -10 5 -10 10 0 6 5 10 10 10 6 0 10 -4 10 -10z m30 0 c0 -5
-2 -10 -4 -10 -3 0 -8 5 -11 10 -3 6 -1 10 4 10 6 0 11 -4 11 -10z m-55 -20
c3 -5 1 -10 -4 -10 -6 0 -11 5 -11 10 0 6 2 10 4 10 3 0 8 -4 11 -10z m585 0
c0 -5 -5 -10 -11 -10 -5 0 -7 5 -4 10 3 6 8 10 11 10 2 0 4 -4 4 -10z m-123
-6 c-3 -3 -12 -4 -19 -1 -8 3 -5 6 6 6 11 1 17 -2 13 -5z m183 -14 c0 -5 -6
-10 -14 -10 -8 0 -18 5 -21 10 -3 6 3 10 14 10 12 0 21 -4 21 -10z m997 -12
c-3 -8 -6 -5 -6 6 -1 11 2 17 5 13 3 -3 4 -12 1 -19z m-941 -22 c10 -8 16 -18
11 -22 -4 -4 -16 2 -27 14 -23 25 -14 29 16 8z m-15 -29 c41 -3 55 -8 57 -20
3 -14 -2 -16 -30 -10 -18 3 -35 9 -38 13 -3 4 -22 10 -42 14 -25 5 -38 12 -38
23 0 15 2 15 18 0 11 -10 40 -18 73 -20z m306 1 c-3 -7 -5 -2 -5 12 0 14 2 19
5 13 2 -7 2 -19 0 -25z m-1044 7 c-3 -9 -8 -14 -10 -11 -3 3 -2 9 2 15 9 16
15 13 8 -4z m827 -1 c0 -2 -7 -4 -15 -4 -8 0 -15 4 -15 10 0 5 7 7 15 4 8 -4
15 -8 15 -10z m877 -16 c-3 -8 -6 -5 -6 6 -1 11 2 17 5 13 3 -3 4 -12 1 -19z
m-847 -2 c0 -9 -8 -12 -27 -8 -25 5 -25 6 -8 13 29 11 35 10 35 -5z m-853 -28
c-3 -8 -6 -5 -6 6 -1 11 2 17 5 13 3 -3 4 -12 1 -19z m823 -8 c0 -5 -2 -10 -4
-10 -3 0 -8 5 -11 10 -3 6 -1 10 4 10 6 0 11 -4 11 -10z m40 0 c0 -5 -4 -10
-10 -10 -5 0 -10 5 -10 10 0 6 5 10 10 10 6 0 10 -4 10 -10z m827 -12 c-3 -8
-6 -5 -6 6 -1 11 2 17 5 13 3 -3 4 -12 1 -19z m-847 -28 c-20 -13 -43 -13 -35
0 3 6 16 10 28 10 18 0 19 -2 7 -10z m150 -22 c0 -16 -3 -19 -11 -11 -6 6 -8
16 -5 22 11 17 16 13 16 -11z m617 0 c-3 -8 -6 -5 -6 6 -1 11 2 17 5 13 3 -3
4 -12 1 -19z m-1610 -25 c-3 -10 -5 -4 -5 12 0 17 2 24 5 18 2 -7 2 -21 0 -30z
m1043 20 c0 -14 -19 -38 -25 -32 -8 8 5 39 16 39 5 0 9 -3 9 -7z m620 -34 c0
-22 -4 -38 -8 -35 -8 5 -4 76 4 76 2 0 4 -18 4 -41z m-38 -49 c-8 -11 -18 24
-13 48 5 26 6 26 11 -8 3 -19 4 -37 2 -40z m-768 45 c-4 -8 -15 -15 -26 -15
-17 0 -18 3 -8 15 7 8 19 15 26 15 8 0 11 -6 8 -15z m41 5 c3 -5 1 -10 -4 -10
-6 0 -11 5 -11 10 0 6 2 10 4 10 3 0 8 -4 11 -10z m-865 -34 c0 -8 3 -23 6
-33 3 -10 -2 -7 -10 7 -18 30 -20 40 -6 40 6 0 10 -6 10 -14z m48 -37 c-2 -6
-8 -10 -13 -10 -5 0 -11 4 -13 10 -2 6 4 11 13 11 9 0 15 -5 13 -11z m1545
-19 c6 0 2 -6 -9 -14 -15 -12 -17 -17 -6 -27 6 -7 12 -20 11 -28 0 -11 -2 -12
-6 -3 -2 6 -9 10 -14 6 -5 -3 -9 9 -9 25 0 17 4 31 9 31 5 0 8 8 6 18 -1 9 0
11 2 5 3 -7 9 -13 16 -13z m-1543 -61 c0 -6 -4 -7 -10 -4 -5 3 -10 11 -10 16
0 6 5 7 10 4 6 -3 10 -11 10 -16z m76 -56 c-7 -7 -26 7 -26 19 0 6 6 6 15 -2
9 -7 13 -15 11 -17z m1394 16 c0 -6 9 -8 20 -4 31 10 24 -2 -12 -19 -17 -9
-32 -16 -33 -16 -1 0 0 11 3 25 4 24 22 36 22 14z m-1425 -29 c3 -5 1 -10 -4
-10 -6 0 -11 5 -11 10 0 6 2 10 4 10 3 0 8 -4 11 -10z m1442 -39 c-14 -14 -30
-42 -35 -61 -6 -21 -11 -27 -11 -15 -1 11 -4 31 -6 45 -5 22 -4 22 4 5 7 -14
10 -16 10 -5 1 22 42 70 53 64 5 -4 -2 -18 -15 -33z m-1289 3 c18 -5 22 -13
22 -45 0 -24 -5 -39 -12 -40 -10 0 -10 -2 0 -6 6 -2 12 -12 12 -21 -1 -15 -2
-15 -15 2 -12 16 -17 17 -30 6 -10 -8 -15 -9 -15 -1 0 6 3 11 8 11 4 0 14 4
22 10 12 7 10 12 -9 29 -13 12 -30 21 -37 21 -7 0 -10 8 -7 20 5 21 21 24 61
14z m-88 -14 c-8 -5 -19 -10 -25 -10 -5 0 -3 5 5 10 8 5 20 10 25 10 6 0 3 -5
-5 -10z m40 -59 c-6 -12 -15 -21 -21 -21 -10 0 -4 15 16 36 15 17 18 9 5 -15z
m1229 -63 c-1 -18 2 -50 6 -70 7 -32 5 -38 -10 -38 -13 0 -15 3 -7 13 12 14 5
58 -10 68 -11 7 1 59 13 59 5 0 8 -15 8 -32z m-1172 -1 c11 -18 42 -31 77 -32
16 0 31 -6 34 -13 3 -11 0 -12 -17 -3 -17 9 -21 9 -21 -2 0 -12 -5 -12 -32 0
-33 15 -78 63 -59 63 6 0 14 -6 18 -13z m1213 -24 c0 -25 -1 -26 -16 -11 -9 9
-13 21 -10 27 13 20 26 11 26 -16z m-1100 -65 c0 -16 -3 -19 -11 -11 -6 6 -8
16 -5 22 11 17 16 13 16 -11z m120 -7 c0 -5 -6 -11 -12 -14 -7 -2 -1 -2 14 0
22 4 27 1 22 -10 -3 -10 2 -18 15 -22 21 -6 30 -35 10 -35 -5 0 -7 -5 -4 -10
4 -6 16 -8 27 -4 17 5 19 3 13 -15 -5 -16 -2 -21 11 -21 13 0 14 -3 4 -15 -11
-13 -16 -12 -42 10 -17 14 -44 32 -62 39 -42 18 -70 51 -62 73 6 13 9 14 15 4
6 -9 10 -7 14 8 5 20 37 30 37 12z m795 -105 c0 -13 -8 -20 -22 -21 -23 -2
-32 22 -16 39 13 13 38 1 38 -18z m-598 3 c81 -19 94 -29 33 -25 -30 2 -65 7
-77 11 -15 5 -23 3 -23 -4 0 -6 11 -13 25 -17 14 -3 25 -11 25 -16 0 -6 -11
-7 -27 -3 -34 8 -30 4 -38 38 -8 32 4 34 82 16z m674 -25 c-5 -16 -10 -21 -10
-12 -1 18 10 51 15 45 2 -1 -1 -16 -5 -33z m26 -6 c-3 -8 -6 -5 -6 6 -1 11 2
17 5 13 3 -3 4 -12 1 -19z m-52 -24 c14 -15 14 -17 -2 -30 -28 -21 -40 -16
-40 16 0 33 17 39 42 14z m-525 -19 c0 -1 -16 -10 -35 -19 -36 -18 -80 -13
-88 8 -4 10 11 13 59 14 35 0 64 -1 64 -3z m30 -25 c-8 -6 -22 -10 -30 -9 -9
0 -5 6 10 14 27 14 44 10 20 -5z m-55 -20 c3 -5 -1 -10 -9 -10 -9 0 -16 5 -16
10 0 6 4 10 9 10 6 0 13 -4 16 -10z m503 -8 c2 -7 -7 -12 -22 -12 -15 0 -26 6
-26 13 0 17 42 15 48 -1z m-438 -2 c0 -5 -4 -10 -10 -10 -5 0 -10 5 -10 10 0
6 5 10 10 10 6 0 10 -4 10 -10z m87 -30 c3 -10 2 -11 -4 -4 -4 6 -15 14 -23
17 -11 5 -9 6 4 4 11 -1 21 -9 23 -17z m123 10 c0 -5 6 -8 13 -6 6 1 9 1 5 -1
-12 -7 -10 -33 2 -33 6 0 10 4 10 10 0 5 7 7 17 3 14 -5 12 -8 -7 -15 -14 -5
-27 -5 -34 2 -5 5 -19 10 -30 10 -10 0 -16 3 -12 7 3 4 -4 13 -16 20 -22 12
-21 12 15 13 20 0 37 -4 37 -10z m258 -7 c-3 -5 -10 -22 -18 -38 -15 -36 -61
-65 -52 -33 2 11 -1 18 -9 19 -8 0 -25 2 -38 5 -14 2 -27 1 -30 -4 -3 -4 -19
-5 -36 -1 l-30 7 27 1 c19 1 26 5 22 15 -4 10 6 13 38 12 24 -1 48 -5 55 -9 7
-5 20 0 30 12 17 18 49 29 41 14z"/>
<path d="M12631 36114 c0 -11 3 -14 6 -6 3 7 2 16 -1 19 -3 4 -6 -2 -5 -13z"/>
<path d="M12123 34863 c9 -2 23 -2 30 0 6 3 -1 5 -18 5 -16 0 -22 -2 -12 -5z"/>
<path d="M17135 36020 c-28 -6 -29 -7 -8 -14 13 -4 26 -18 29 -32 7 -29 34
-32 34 -5 0 11 4 22 8 25 10 6 9 -30 -1 -40 -12 -13 -7 -24 8 -18 8 4 15 1 15
-6 0 -8 -8 -10 -21 -7 -12 3 -33 1 -48 -4 -25 -9 -25 -8 -6 7 19 14 19 16 3
25 -10 6 -18 19 -18 29 0 11 -4 20 -9 20 -4 0 -6 -12 -4 -27 4 -27 4 -27 -11
-9 -8 10 -17 24 -19 30 -6 15 -54 -30 -54 -49 0 -12 6 -10 24 7 12 12 25 19
28 16 10 -10 -5 -33 -28 -43 -19 -9 -22 -17 -20 -60 1 -30 -1 -44 -6 -36 -5 7
-14 10 -20 7 -6 -4 -9 -11 -6 -16 6 -10 -13 -25 -21 -17 -8 8 20 47 33 47 7 0
13 5 13 10 0 6 -4 10 -10 10 -5 0 -10 7 -10 15 0 22 -11 19 -45 -12 -16 -16
-33 -27 -37 -25 -5 1 -8 -2 -8 -7 0 -5 -6 -16 -13 -23 -13 -13 -30 -47 -66
-131 -20 -46 -34 -57 -46 -37 -7 11 -123 90 -133 90 -3 0 -24 8 -46 19 -172
79 -353 78 -514 -2 -121 -60 -182 -158 -182 -292 0 -81 32 -219 59 -255 10
-14 22 -37 26 -50 7 -22 86 -145 125 -194 35 -44 118 -126 128 -126 6 0 15 -6
19 -13 9 -14 80 -64 125 -86 29 -15 53 -7 28 9 -30 19 -1 20 31 1 34 -20 58
-21 147 -6 45 8 55 -3 28 -30 -10 -10 -16 -11 -25 -2 -8 8 -11 5 -11 -11 0
-15 5 -20 15 -16 8 4 15 2 15 -4 0 -6 -6 -12 -12 -15 -7 -2 4 -7 24 -11 21 -4
40 -12 44 -18 4 -7 3 -8 -4 -4 -7 4 -12 2 -12 -3 0 -6 4 -11 9 -11 6 0 22 -11
37 -25 15 -14 33 -25 40 -25 8 0 14 -5 14 -11 0 -5 5 -7 10 -4 6 4 8 10 5 15
-3 5 -1 11 4 14 5 3 11 -3 14 -14 3 -11 1 -20 -5 -20 -5 0 -6 -5 -3 -10 5 -8
11 -7 21 1 11 9 14 8 14 -4 0 -22 24 -39 37 -26 6 6 9 17 7 24 -4 9 2 11 19 8
17 -4 30 2 45 21 11 14 25 26 30 26 6 0 27 16 48 35 20 19 40 35 43 35 3 0 28
20 55 45 26 25 51 45 55 45 22 0 136 132 223 256 139 198 198 329 219 493 23
166 -21 312 -119 402 -72 66 -105 90 -119 85 -6 -3 -13 -1 -15 5 -4 11 -102
39 -140 39 -16 0 -28 -5 -28 -11 0 -8 -4 -8 -12 -2 -7 5 -26 7 -43 3z m-15
-150 c0 -45 -4 -60 -14 -60 -8 0 -16 7 -20 15 -3 8 -1 15 4 15 6 0 10 5 10 10
0 14 -27 12 -33 -2 -5 -12 -7 -4 -11 47 -1 21 16 33 47 34 14 1 17 -8 17 -59z
m205 17 c7 -7 6 -8 -2 -3 -22 12 -36 -5 -16 -20 10 -7 14 -13 8 -14 -17 0 -32
14 -40 38 -6 22 -5 23 17 17 12 -4 28 -12 33 -18z m49 -43 c10 -4 16 -19 17
-38 1 -17 3 -23 6 -13 2 9 9 17 15 17 6 0 8 -9 5 -19 -3 -14 -1 -18 9 -14 8 3
14 -1 14 -11 0 -9 5 -16 10 -16 6 0 10 -5 10 -11 0 -8 -4 -8 -12 -1 -7 5 -28
13 -45 17 -31 6 -33 10 -34 48 -1 23 -3 34 -6 25 -5 -21 -23 -24 -23 -5 0 12
9 27 16 27 1 0 9 -3 18 -6z m-314 -79 c0 -4 -6 -5 -14 -2 -8 3 -16 2 -18 -3
-3 -7 -44 -14 -75 -11 -26 2 -12 21 15 21 16 0 37 6 47 14 16 11 21 11 32 0 7
-7 13 -16 13 -19z m240 -1 c0 -9 -5 -14 -12 -12 -18 6 -21 28 -4 28 9 0 16 -7
16 -16z m165 -54 c-3 -5 -11 -10 -16 -10 -6 0 -7 5 -4 10 3 6 11 10 16 10 6 0
7 -4 4 -10z m-515 -10 c12 -8 11 -10 -8 -10 -19 0 -21 -3 -13 -19 11 -19 4
-34 -10 -25 -11 6 -12 48 -2 57 9 9 15 9 33 -3z m-545 -10 c7 -11 -9 -11 -45
0 -24 8 -24 8 7 9 17 1 35 -3 38 -9z m55 0 c0 -5 -4 -10 -10 -10 -5 0 -10 5
-10 10 0 6 5 10 10 10 6 0 10 -4 10 -10z m-140 -30 c0 -29 -2 -30 -46 -30 -25
0 -54 -5 -65 -11 -11 -5 -28 -9 -37 -7 -25 5 55 49 101 56 20 2 37 9 37 13 0
5 2 9 5 9 3 0 5 -13 5 -30z m1124 6 c-3 -8 -1 -17 5 -21 6 -3 11 -23 10 -43
l-1 -37 -13 49 c-8 28 -12 53 -9 58 8 13 14 9 8 -6z m-846 -18 c2 -4 12 -8 23
-8 10 0 19 -4 19 -10 0 -5 -18 -10 -41 -10 -29 0 -38 -3 -33 -12 4 -7 -1 -6
-12 3 -25 21 -57 29 -78 17 -19 -11 -20 -5 -4 22 11 17 20 19 68 13 30 -3 57
-10 58 -15z m359 0 c-3 -8 -6 -5 -6 6 -1 11 2 17 5 13 3 -3 4 -12 1 -19z
m-775 0 c-9 -9 -15 -9 -24 0 -9 9 -7 12 12 12 19 0 21 -3 12 -12z m-28 -25
c-4 -10 -10 -52 -12 -93 -5 -108 -24 -117 -21 -10 1 49 7 88 13 92 7 5 4 8 -6
8 -10 0 -18 -5 -18 -11 0 -5 -4 -7 -10 -4 -15 10 12 34 39 35 18 0 22 -3 15
-17z m535 -27 c-5 -6 -9 -18 -9 -29 0 -17 -22 -47 -34 -47 -3 0 -6 16 -6 35 0
25 4 35 15 35 12 0 13 4 5 19 -16 30 -12 34 14 14 15 -11 21 -22 15 -27z m811
4 c0 -5 -4 -10 -10 -10 -5 0 -10 5 -10 10 0 6 5 10 10 10 6 0 10 -4 10 -10z
m-560 -15 c0 -8 5 -15 10 -15 6 0 10 -7 10 -15 0 -8 -4 -15 -10 -15 -5 0 -10
7 -10 15 0 11 -8 13 -32 8 l-33 -6 25 21 c30 25 40 27 40 7z m-863 -27 c-3 -8
-6 -5 -6 6 -1 11 2 17 5 13 3 -3 4 -12 1 -19z m693 2 c0 -5 -2 -10 -4 -10 -3
0 -8 5 -11 10 -3 6 -1 10 4 10 6 0 11 -4 11 -10z m100 -20 c0 -5 -10 -10 -22
-10 -19 0 -20 2 -8 10 19 13 30 13 30 0z m-793 -62 c-2 -13 -4 -3 -4 22 0 25
2 35 4 23 2 -13 2 -33 0 -45z m696 45 c-7 -2 -19 -2 -25 0 -7 3 -2 5 12 5 14
0 19 -2 13 -5z m135 -1 c-20 -2 -28 -9 -28 -23 0 -10 -4 -19 -10 -19 -5 0 -10
5 -10 10 0 6 -13 10 -30 10 -17 0 -30 5 -30 13 0 8 21 12 68 13 37 0 55 -2 40
-4z m-115 -60 c-4 -17 -13 -22 -39 -22 -19 0 -34 3 -34 6 0 12 28 32 51 36 30
5 29 6 22 -20z m-740 -7 c-7 -21 -13 -19 -13 6 0 11 4 18 10 14 5 -3 7 -12 3
-20z m1403 -17 c5 -7 3 -8 -6 -3 -9 6 -11 -1 -6 -26 5 -30 5 -31 -5 -12 -16
31 0 70 17 41z m-1376 -24 c0 -10 -27 -33 -33 -28 -9 10 4 34 19 34 8 0 14 -3
14 -6z m-7 -69 c-5 -25 -7 -26 -13 -10 -4 11 -2 25 4 31 15 16 15 14 9 -21z
m1317 5 c0 -5 -4 -10 -10 -10 -5 0 -10 5 -10 10 0 6 5 10 10 10 6 0 10 -4 10
-10z m-1225 -61 c4 -27 4 -53 1 -56 -3 -4 -6 1 -6 10 0 10 -4 17 -10 17 -5 0
-10 -9 -10 -20 0 -25 -16 -26 -30 -1 -13 24 -13 41 0 21 7 -12 12 -12 22 -2 9
9 9 15 0 24 -20 20 -15 58 7 58 15 0 20 -10 26 -51z m1246 8 c-8 -8 -11 -7
-11 4 0 20 13 34 18 19 3 -7 -1 -17 -7 -23z m-36 -7 c3 -5 1 -10 -4 -10 -6 0
-11 5 -11 10 0 6 2 10 4 10 3 0 8 -4 11 -10z m29 -25 c-4 -8 -8 -15 -10 -15
-2 0 -4 7 -4 15 0 8 4 15 10 15 5 0 7 -7 4 -15z m-24 -4 c0 -6 -4 -13 -10 -16
-5 -3 -10 1 -10 9 0 9 5 16 10 16 6 0 10 -4 10 -9z m0 -46 c0 -8 -2 -15 -4
-15 -2 0 -6 7 -10 15 -3 8 -1 15 4 15 6 0 10 -7 10 -15z m-70 -51 c0 -19 -7
-42 -15 -51 -9 -9 -13 -23 -9 -35 5 -18 4 -19 -17 -8 -20 11 -21 14 -6 25 10
7 14 21 11 36 -4 21 -3 22 5 4 8 -16 10 -12 10 23 1 23 6 42 11 42 6 0 10 -16
10 -36z m26 -12 c-11 -10 -15 4 -8 28 l7 25 3 -23 c2 -13 1 -26 -2 -30z
m-1072 -28 c9 -3 16 -12 16 -20 0 -8 4 -14 9 -14 5 0 12 -12 16 -27 7 -26 8
-26 15 -8 7 17 9 15 9 -10 1 -16 -5 -42 -13 -57 -17 -32 -12 -40 21 -27 69 26
114 -4 51 -35 -38 -20 -35 -20 -41 5 -3 12 -10 18 -17 14 -6 -4 -17 -1 -25 5
-11 9 -12 17 -4 33 9 16 8 22 -6 30 -14 8 -15 11 -4 18 9 6 10 9 2 9 -6 0 -19
-7 -27 -16 -20 -19 -36 -10 -35 19 1 18 2 19 6 4 4 -17 25 -21 24 -4 -1 4 -1
14 -1 22 0 8 -7 15 -16 15 -11 0 -14 6 -9 20 5 16 3 19 -12 14 -15 -5 -16 -4
-3 5 18 13 23 13 44 5z m876 -14 c0 -5 -4 -10 -10 -10 -5 0 -10 5 -10 10 0 6
5 10 10 10 6 0 10 -4 10 -10z m-932 -35 c-3 -3 -9 2 -12 12 -6 14 -5 15 5 6 7
-7 10 -15 7 -18z m992 -49 c0 -19 6 -37 13 -39 15 -7 -10 -27 -34 -27 -12 0
-16 12 -17 50 -1 43 2 50 19 50 15 0 19 -7 19 -34z m38 22 c-2 -6 -10 -14 -16
-16 -7 -2 -10 2 -6 12 7 18 28 22 22 4z m-8 -32 c0 -3 -4 -8 -10 -11 -5 -3
-10 -1 -10 4 0 6 5 11 10 11 6 0 10 -2 10 -4z m-80 -66 c0 -5 -4 -10 -10 -10
-5 0 -10 5 -10 10 0 6 5 10 10 10 6 0 10 -4 10 -10z m60 0 c0 -5 -5 -10 -11
-10 -7 0 -18 -8 -25 -17 -13 -17 -13 -17 -14 0 0 14 20 29 48 36 1 1 2 -3 2
-9z m-60 -74 c0 -21 -12 -24 -39 -10 l-24 12 24 5 c13 2 27 5 32 6 4 0 7 -5 7
-13z m-710 -6 c8 -5 11 -10 5 -10 -5 0 -17 5 -25 10 -8 5 -10 10 -5 10 6 0 17
-5 25 -10z m55 -78 c-6 -7 -59 23 -63 36 -2 7 12 2 31 -10 19 -13 33 -25 32
-26z m625 38 c0 -5 -9 -10 -19 -10 -11 0 -23 5 -26 10 -4 6 5 10 19 10 14 0
26 -4 26 -10z m-520 -29 c0 -10 -24 -21 -46 -21 -9 0 -12 5 -9 10 3 6 2 10 -3
10 -6 0 -12 -7 -16 -15 -8 -22 -25 -18 -19 5 4 16 14 20 49 20 24 0 44 -4 44
-9z m454 3 c-6 -3 -9 -15 -7 -27 3 -17 -4 -25 -29 -37 -23 -11 -35 -24 -39
-45 l-7 -30 -1 28 c0 15 -5 27 -11 27 -19 0 -10 29 11 35 28 9 59 37 53 47 -3
4 5 8 18 7 13 0 18 -3 12 -5z m-47 -106 c-3 -8 -6 -5 -6 6 -1 11 2 17 5 13 3
-3 4 -12 1 -19z m-220 -64 c4 -12 8 -13 14 -3 10 17 39 21 33 4 -9 -22 -47
-26 -68 -7 -18 16 -19 16 -13 -9 6 -24 4 -26 -18 -21 -14 2 -25 9 -25 14 0 5
5 6 10 3 6 -3 10 3 10 14 0 16 6 21 25 21 14 0 28 -7 32 -16z m140 1 c8 -9 13
-18 11 -20 -6 -7 -58 18 -58 28 0 13 31 7 47 -8z m-63 -53 c3 -5 1 -22 -4 -38
-4 -16 -9 -21 -9 -11 -1 10 -8 20 -16 23 -12 5 -13 10 -4 20 13 16 25 18 33 6z"/>
<path d="M17005 35960 c-3 -5 -1 -10 4 -10 6 0 11 5 11 10 0 6 -2 10 -4 10 -3
0 -8 -4 -11 -10z"/>
<path d="M16966 35931 c-3 -5 6 -8 19 -8 14 0 25 3 25 8 0 5 -9 9 -19 9 -11 0
-22 -4 -25 -9z"/>
<path d="M15626 32815 c-151 -33 -305 -125 -432 -257 -102 -106 -135 -173
-125 -255 1 -7 -2 -13 -7 -13 -5 0 -12 -9 -15 -20 -3 -11 -1 -20 5 -20 5 0 6
-5 3 -10 -4 -6 -12 -4 -21 5 -19 18 -25 19 -21 3 1 -7 -8 -14 -20 -16 -13 -2
-23 1 -23 7 0 6 7 8 16 4 15 -5 15 -3 -1 20 -9 15 -21 27 -26 27 -5 0 -9 6 -9
13 0 7 -27 28 -60 47 -33 18 -62 41 -65 49 -9 28 -116 81 -204 102 -131 32
-278 23 -386 -21 -96 -40 -169 -108 -212 -197 -25 -53 -27 -67 -27 -168 1 -77
7 -123 19 -155 9 -25 20 -61 24 -80 9 -40 87 -182 142 -256 42 -57 197 -215
250 -255 68 -51 158 -100 260 -139 57 -23 113 -45 124 -50 23 -10 70 -19 135
-25 25 -3 83 -10 130 -17 47 -7 104 -12 128 -13 23 0 42 -2 42 -5 0 -5 22 -9
63 -10 10 -1 30 -5 43 -10 32 -13 30 -4 -3 14 l-28 15 35 -3 c19 -2 40 -4 45
-5 6 -1 3 -6 -5 -12 -12 -9 -11 -9 5 -4 25 9 30 9 80 1 29 -4 34 -4 20 3 -11
5 -14 10 -7 10 6 1 12 9 12 20 0 10 14 30 31 44 26 21 29 28 20 46 -10 17 -9
20 4 15 8 -4 15 -1 15 5 0 11 39 35 46 28 8 -8 -30 -76 -43 -77 -6 0 -16 -13
-21 -30 -8 -23 -15 -28 -29 -23 -14 6 -14 3 4 -16 l22 -23 22 21 c13 12 28 22
33 22 6 1 16 2 21 3 25 3 67 42 116 107 69 91 142 200 175 264 14 28 32 57 40
66 22 25 131 304 166 424 30 102 32 121 33 265 0 135 -3 164 -23 225 -61 185
-171 287 -342 314 -77 13 -97 12 -174 -4z m109 -115 c3 -5 -3 -10 -15 -10 -12
0 -18 5 -15 10 3 6 10 10 15 10 5 0 12 -4 15 -10z m45 -14 c0 -2 -7 -7 -16
-10 -8 -3 -12 -2 -9 4 6 10 25 14 25 6z m-200 -16 c8 -5 11 -10 5 -10 -5 0
-17 5 -25 10 -8 5 -10 10 -5 10 6 0 17 -5 25 -10z m60 0 c-20 -13 -43 -13 -35
0 3 6 16 10 28 10 18 0 19 -2 7 -10z m240 -11 c14 -11 19 -18 12 -14 -19 10
-49 -4 -55 -25 -6 -25 -40 -27 -35 -2 2 9 10 16 16 15 7 -2 12 2 12 7 0 6 8
10 17 10 13 0 14 3 5 12 -10 10 -17 10 -32 0 -23 -14 -40 -16 -40 -3 0 9 24
17 60 19 8 1 26 -8 40 -19z m-147 4 c-7 -2 -19 -2 -25 0 -7 3 -2 5 12 5 14 0
19 -2 13 -5z m-166 -19 c-3 -3 -12 -4 -19 -1 -8 3 -5 6 6 6 11 1 17 -2 13 -5z
m116 0 c15 -15 -15 -44 -44 -44 -18 0 -28 4 -24 10 3 6 17 10 31 10 25 0 33
15 12 23 -9 4 -7 6 3 6 9 1 19 -2 22 -5z m-203 -29 c-7 -8 -17 -12 -22 -9 -5
3 -1 12 9 19 22 17 30 11 13 -10z m441 -18 c-10 -9 -11 -8 -5 6 3 10 9 15 12
12 3 -3 0 -11 -7 -18z m-451 -21 c-18 -10 -30 -11 -44 -4 -13 7 -21 6 -27 -3
-5 -8 -9 -9 -9 -3 0 19 12 24 59 24 44 -1 45 -1 21 -14z m483 -10 c12 4 17 1
17 -10 0 -9 9 -25 20 -36 24 -24 26 -40 5 -40 -8 0 -19 17 -26 42 l-11 42 -14
-24 c-9 -18 -13 -20 -14 -8 0 9 -3 25 -6 35 -4 13 -3 14 3 5 5 -7 17 -10 26
-6z m-583 -35 c0 -11 -6 -26 -14 -33 -8 -8 -16 -23 -18 -34 -3 -14 -12 -19
-36 -19 -26 0 -32 -3 -29 -17 3 -10 -3 -18 -16 -22 -28 -7 -37 3 -14 15 9 6
17 19 17 29 0 11 7 20 15 20 10 0 12 6 8 18 -6 15 -5 15 11 3 15 -13 20 -11
43 12 25 24 25 26 5 20 -29 -7 -28 5 1 17 12 5 23 9 25 9 1 1 2 -8 2 -18z
m650 -87 c0 -8 -4 -12 -10 -9 -6 3 -10 -4 -10 -17 0 -16 3 -19 9 -10 12 20 23
-45 11 -68 -13 -24 -13 -33 0 -25 6 3 10 -1 10 -9 0 -9 -4 -16 -10 -16 -18 0
-11 -40 8 -41 14 0 14 -2 -3 -8 -11 -5 -23 -7 -27 -4 -9 5 -11 194 -2 217 7
19 24 11 24 -10z m-804 -46 c4 -7 3 -8 -4 -4 -8 5 -12 -2 -12 -18 0 -19 -4
-24 -16 -19 -9 3 -12 9 -7 12 5 3 12 14 16 24 7 20 13 21 23 5z m-816 -33 c0
-18 -5 -25 -19 -25 -27 0 -34 15 -15 34 22 23 34 20 34 -9z m237 15 c9 0 13
-6 9 -15 -4 -11 2 -15 20 -15 19 0 25 -4 20 -15 -9 -23 22 -18 34 6 10 18 13
19 28 6 9 -8 28 -17 42 -20 14 -3 6 -5 -17 -4 -23 1 -42 -2 -42 -7 1 -16 -25
-24 -58 -19 -35 6 -45 22 -15 24 16 1 16 2 0 6 -10 2 -18 8 -18 13 0 4 -18 6
-40 3 -26 -4 -40 -2 -40 6 0 6 18 11 43 12 l42 1 -38 8 c-20 4 -41 10 -45 15
-4 4 8 5 27 1 18 -3 40 -6 48 -6z m-327 -15 c-7 -8 -19 -15 -26 -15 -8 0 -14
-7 -14 -15 0 -20 16 -19 24 1 3 8 10 12 16 9 6 -4 8 -11 5 -16 -4 -5 1 -9 9
-9 9 0 16 -9 16 -20 0 -13 -7 -20 -20 -20 -11 0 -20 4 -20 9 0 5 -13 11 -30
13 -21 3 -30 0 -33 -11 -4 -14 -5 -13 -6 1 0 9 4 20 9 23 17 10 11 25 -7 19
-10 -2 -7 1 7 8 14 7 27 15 30 19 5 7 30 17 44 18 5 1 3 -6 -4 -14z m313 -42
c-7 -2 -19 -2 -25 0 -7 3 -2 5 12 5 14 0 19 -2 13 -5z m553 -43 c-13 -64 -36
-69 -26 -5 4 29 3 46 -4 49 -6 2 1 5 15 5 25 1 25 1 15 -49z m-978 11 c-2 -5
8 -19 22 -31 l25 -22 -33 7 c-50 11 -58 -3 -56 -93 1 -63 -2 -83 -17 -103
l-19 -24 -2 40 c-4 87 -4 101 5 140 12 49 24 65 48 65 12 0 16 5 13 15 -4 8
-1 15 5 15 6 0 10 -4 9 -9z m682 -19 c3 -5 13 -11 23 -15 21 -8 14 -27 -9 -27
-8 0 -13 4 -9 9 7 13 -34 41 -51 34 -8 -3 -14 -9 -14 -15 0 -5 4 -7 8 -4 4 2
14 1 21 -3 9 -6 5 -10 -13 -13 -14 -3 -26 -1 -26 3 0 5 -7 9 -15 9 -20 0 -19
17 3 30 18 11 72 5 82 -8z m-86 -41 c-7 -9 -34 10 -34 24 0 13 3 12 18 -2 10
-10 17 -20 16 -22z m1236 -65 c0 -3 -4 -8 -10 -11 -5 -3 -10 -1 -10 4 0 6 5
11 10 11 6 0 10 -2 10 -4z m-23 -58 c-3 -7 -5 -2 -5 12 0 14 2 19 5 13 2 -7 2
-19 0 -25z m-7 -58 c0 -11 -6 -20 -13 -20 -19 0 -27 10 -20 26 8 21 33 17 33
-6z m-1843 -36 c0 -42 -2 -45 -14 -28 -9 12 -10 21 -3 28 5 5 10 18 10 28 0
10 2 18 4 18 2 0 4 -21 3 -46z m1803 -4 c0 -5 -4 -10 -10 -10 -5 0 -10 -7 -10
-15 0 -8 -4 -15 -10 -15 -18 0 -11 -48 8 -53 9 -2 1 -4 -19 -4 l-35 0 10 41
c6 23 15 46 21 53 12 15 45 17 45 3z m-1720 -62 c0 -26 -6 -36 -26 -45 -25
-12 -54 -8 -54 7 0 4 11 5 25 3 23 -5 24 -3 18 31 -5 32 -3 36 16 36 17 0 21
-6 21 -32z m1660 -58 c0 -5 -4 -10 -10 -10 -5 0 -10 5 -10 10 0 6 5 10 10 10
6 0 10 -4 10 -10z m-1700 -25 c0 -8 -4 -15 -10 -15 -5 0 -10 7 -10 15 0 8 5
15 10 15 6 0 10 -7 10 -15z m1735 -5 c3 -5 1 -10 -4 -10 -6 0 -11 5 -11 10 0
6 2 10 4 10 3 0 8 -4 11 -10z m-1700 -10 c3 -5 1 -10 -4 -10 -6 0 -11 5 -11
10 0 6 2 10 4 10 3 0 8 -4 11 -10z m1635 -61 c0 -10 -5 -21 -10 -24 -15 -9 -2
-25 15 -18 11 3 13 1 9 -10 -3 -9 -13 -13 -25 -10 -17 5 -19 2 -14 -23 4 -23
3 -25 -4 -9 -13 27 -13 72 0 80 6 4 8 20 4 38 -6 30 -5 31 10 13 8 -11 15 -28
15 -37z m32 39 c-9 -9 -15 -9 -24 0 -9 9 -7 12 12 12 19 0 21 -3 12 -12z m8
-32 c0 -3 -4 -8 -10 -11 -5 -3 -10 -1 -10 4 0 6 5 11 10 11 6 0 10 -2 10 -4z
m-1553 -58 c3 -10 11 -18 19 -18 7 0 16 -5 19 -11 9 -13 -3 -79 -14 -79 -9 0
-24 38 -22 53 1 4 -6 15 -15 24 -13 14 -17 14 -26 2 -7 -10 -7 -7 -3 10 5 15
3 21 -3 17 -6 -3 -14 -1 -18 5 -3 6 -1 15 6 19 19 12 52 -1 57 -22z m1423 -68
c0 -5 -4 -10 -10 -10 -5 0 -10 5 -10 10 0 6 5 10 10 10 6 0 10 -4 10 -10z m22
-58 c4 -12 -1 -18 -13 -18 -14 0 -15 4 -8 18 5 10 11 18 13 18 2 0 6 -8 8 -18z
m-1402 -13 c0 -11 -4 -18 -10 -14 -5 3 -7 12 -3 20 7 21 13 19 13 -6z m117
-20 c3 -9 13 -19 23 -22 13 -3 18 -14 18 -36 -1 -17 -2 -31 -4 -31 -15 0 -34
15 -34 27 0 14 -23 43 -34 43 -10 0 -6 -38 4 -43 6 -3 5 -4 -2 -3 -8 2 -13 18
-12 45 0 23 -2 37 -6 30 -5 -7 -13 -8 -21 -4 -9 6 -8 10 7 15 27 10 56 0 61
-21z m-69 -35 c-4 -3 -12 5 -18 18 -12 22 -12 22 6 6 10 -10 15 -20 12 -24z
m1323 3 c-10 -9 -11 -8 -5 6 3 10 9 15 12 12 3 -3 0 -11 -7 -18z m-65 -51 c3
-13 0 -34 -6 -46 -10 -18 -9 -24 1 -31 11 -6 11 -11 1 -21 -13 -13 -13 -17
-15 70 -2 54 8 70 19 28z m25 -49 c-8 -8 -11 -7 -11 4 0 20 13 34 18 19 3 -7
-1 -17 -7 -23z m-1073 -9 c-2 -7 4 -11 12 -9 59 14 57 15 33 -3 -28 -21 -80
-12 -62 10 14 17 20 18 17 2z m162 -26 c22 -18 22 -18 -19 -14 -34 3 -40 7
-30 18 15 18 22 18 49 -4z m-180 -12 c0 -5 -2 -10 -4 -10 -3 0 -8 5 -11 10 -3
6 -1 10 4 10 6 0 11 -4 11 -10z m40 -10 c0 -5 -7 -10 -15 -10 -8 0 -15 5 -15
10 0 6 7 10 15 10 8 0 15 -4 15 -10z m200 -45 c0 -13 -4 -14 -21 -4 -12 6 -30
9 -40 6 -10 -3 -22 -1 -25 4 -3 5 15 9 40 9 35 0 46 -4 46 -15z m744 0 c-4 -8
-11 -15 -16 -15 -6 0 -5 6 2 15 7 8 14 15 16 15 2 0 1 -7 -2 -15z m49 8 c-7
-2 -13 -15 -13 -28 0 -27 -35 -44 -53 -26 -8 8 -6 11 6 11 10 0 23 11 29 25 6
14 18 25 27 24 10 0 12 -2 4 -6z m-903 -13 c0 -5 -7 -7 -15 -4 -8 4 -15 8 -15
10 0 2 7 4 15 4 8 0 15 -4 15 -10z m100 -30 c12 -8 11 -10 -7 -10 -12 0 -25 5
-28 10 -8 13 15 13 35 0z m170 -34 c0 -19 -28 -28 -48 -16 -15 8 -15 10 3 11
17 1 16 2 -5 9 -22 7 -21 8 13 9 25 1 37 -3 37 -13z m37 -2 c-3 -3 -12 -4 -19
-1 -8 3 -5 6 6 6 11 1 17 -2 13 -5z m118 -4 c3 -5 -3 -10 -14 -10 -12 0 -21 5
-21 10 0 6 6 10 14 10 8 0 18 -4 21 -10z m339 -5 c3 -8 1 -15 -4 -15 -6 0 -10
7 -10 15 0 8 2 15 4 15 2 0 6 -7 10 -15z m-414 1 c0 -2 -7 -7 -16 -10 -8 -3
-12 -2 -9 4 6 10 25 14 25 6z m-60 -26 c0 -5 -4 -10 -10 -10 -5 0 -10 5 -10
10 0 6 5 10 10 10 6 0 10 -4 10 -10z m54 -9 c4 -5 -3 -7 -14 -4 -23 6 -26 13
-6 13 8 0 17 -4 20 -9z m416 -6 c-7 -9 -15 -13 -17 -11 -7 7 7 26 19 26 6 0 6
-6 -2 -15z m-170 -61 c0 -14 -3 -14 -15 -4 -8 7 -15 14 -15 16 0 2 7 4 15 4 8
0 15 -7 15 -16z m-40 -30 c0 -2 -14 -4 -31 -4 -16 0 -28 4 -25 9 5 8 56 3 56
-5z"/>
<path d="M14130 32136 c0 -9 5 -16 10 -16 6 0 10 4 10 9 0 6 -4 13 -10 16 -5
3 -10 -1 -10 -9z"/>
<path d="M14370 31670 c0 -5 5 -10 10 -10 6 0 10 5 10 10 0 6 -4 10 -10 10 -5
0 -10 -4 -10 -10z"/>
<path d="M15438 31093 c7 -3 16 -2 19 1 4 3 -2 6 -13 5 -11 0 -14 -3 -6 -6z"/>
<path d="M15525 31090 c-3 -5 -1 -10 4 -10 6 0 11 5 11 10 0 6 -2 10 -4 10 -3
0 -8 -4 -11 -10z"/>
<path d="M18230 29892 c-14 -2 -86 -18 -160 -37 -306 -76 -371 -81 -670 -52
-102 10 -203 18 -225 18 -22 0 -76 -1 -120 -1 -44 0 -102 -5 -130 -10 -230
-41 -293 -53 -310 -60 -11 -5 -27 -8 -35 -8 -24 0 -161 -39 -215 -62 -50 -21
-58 -25 -124 -62 -20 -12 -53 -30 -73 -41 -21 -12 -38 -27 -38 -34 0 -8 -5
-11 -10 -8 -6 3 -13 -1 -16 -9 -3 -9 -13 -16 -21 -16 -8 0 -31 -11 -51 -25
-20 -14 -33 -25 -29 -25 5 0 -18 -22 -50 -48 -32 -27 -85 -78 -118 -113 -59
-64 -155 -184 -155 -195 0 -3 -13 -24 -29 -47 -24 -36 -99 -185 -155 -309 -29
-64 -86 -290 -96 -380 -22 -196 -10 -389 36 -548 7 -22 6 -24 -9 -12 -9 8 -32
38 -52 67 -43 65 -214 227 -264 251 -20 9 -54 29 -76 43 -61 40 -141 81 -159
81 -9 0 -16 4 -16 9 0 5 -10 11 -22 14 -13 3 -66 21 -118 41 -162 60 -318 94
-333 74 -6 -10 -8 -9 -4 3 4 12 -12 17 -92 28 -139 18 -263 15 -376 -8 -27 -6
-75 -16 -104 -22 -168 -33 -424 -168 -552 -291 -59 -56 -191 -224 -251 -319
-193 -305 -369 -784 -473 -1289 -42 -209 -44 -219 -65 -390 -52 -439 -56 -559
-29 -868 7 -78 9 -145 5 -149 -4 -4 -16 3 -27 17 -24 32 -144 247 -215 385
-14 28 -36 68 -49 90 -13 22 -40 74 -61 115 -21 41 -53 101 -71 132 -18 31
-33 62 -33 70 0 7 -11 30 -25 50 -13 19 -56 98 -96 174 -39 77 -100 193 -134
259 -127 243 -575 1156 -575 1171 0 2 -34 75 -76 162 -42 86 -93 193 -114 237
-136 286 -259 511 -291 531 -19 11 -8 -18 66 -182 8 -16 30 -66 49 -110 19
-43 73 -164 121 -269 48 -104 103 -226 122 -270 19 -44 38 -84 42 -90 5 -5 30
-57 56 -115 26 -58 137 -285 246 -505 188 -379 274 -548 418 -817 58 -110 68
-144 38 -133 -47 18 -195 7 -224 -16 -7 -7 -26 -13 -41 -15 -53 -5 -146 -66
-234 -155 -48 -48 -88 -98 -90 -111 -2 -13 -10 -23 -18 -23 -15 0 -45 67 -146
335 -30 80 -61 159 -69 175 -22 47 -82 197 -90 225 -4 14 -16 45 -27 70 -11
25 -23 54 -28 65 -4 11 -19 47 -33 80 -14 33 -71 175 -127 315 -103 258 -175
426 -236 556 -19 39 -34 75 -34 79 0 4 -7 21 -15 38 -19 43 -90 233 -103 277
-19 65 -87 235 -109 273 -21 34 -43 49 -43 28 0 -5 13 -45 29 -88 15 -43 36
-108 46 -145 10 -38 22 -68 28 -68 5 0 7 -7 4 -15 -4 -8 -2 -17 3 -20 6 -4 10
-13 10 -22 0 -8 30 -90 66 -182 36 -91 79 -202 96 -246 17 -44 34 -84 38 -90
4 -5 17 -38 28 -71 12 -34 30 -82 41 -105 20 -45 95 -234 136 -344 12 -33 54
-139 93 -235 38 -96 116 -292 172 -435 120 -305 128 -325 140 -347 5 -9 18
-41 28 -70 16 -44 94 -235 172 -418 11 -25 58 -137 105 -250 48 -112 104 -236
125 -275 21 -38 59 -124 84 -190 26 -66 60 -154 76 -195 28 -69 85 -228 131
-360 10 -30 23 -64 28 -75 46 -101 99 -280 112 -375 23 -170 38 -326 44 -440
4 -68 8 -127 10 -130 1 -3 5 -84 9 -180 3 -96 9 -245 12 -330 6 -136 4 -160
-11 -189 -15 -30 -20 -33 -52 -28 -59 10 -89 -2 -117 -44 -14 -21 -26 -50 -26
-64 0 -26 -29 -45 -74 -50 -25 -2 -57 -42 -49 -60 3 -8 1 -15 -4 -15 -10 0
-43 -63 -43 -83 0 -7 -7 -25 -16 -42 -24 -45 -35 -152 -35 -332 1 -202 15
-250 98 -330 30 -29 59 -53 66 -53 7 0 25 -7 41 -15 23 -12 32 -13 43 -3 12
10 18 9 29 -7 22 -30 17 -38 -20 -31 -30 6 -34 4 -38 -17 -6 -29 0 -47 16 -47
7 0 17 -5 23 -11 12 -12 10 -17 -23 -94 -7 -16 -22 -57 -35 -90 -12 -33 -28
-67 -35 -76 -8 -8 -14 -24 -14 -34 0 -30 -38 -82 -73 -98 -18 -9 -62 -46 -98
-84 -170 -177 -258 -379 -275 -633 -3 -47 -7 -91 -9 -97 -5 -17 14 -123 26
-145 5 -10 9 -24 9 -32 0 -8 3 -16 8 -18 4 -1 18 -28 32 -58 13 -30 45 -81 70
-114 25 -32 61 -80 80 -106 20 -27 65 -80 102 -118 37 -39 64 -73 61 -76 -4
-3 -694 -6 -1535 -6 l-1528 0 0 -22 c0 -19 0 -2837 0 -2860 0 -5 690 -9 1533
-10 l1532 -3 3 -4227 2 -4228 1790 0 1790 0 0 4230 0 4230 3680 0 3680 0 0
1445 0 1445 -764 0 c-781 0 -776 0 -782 35 -1 6 -7 39 -14 75 -7 36 -14 76
-16 90 -2 14 -9 45 -14 70 -9 45 -37 187 -47 245 -3 17 -20 104 -39 195 -41
196 -60 298 -75 400 -5 41 -23 129 -39 195 -16 66 -47 210 -69 320 -22 110
-59 288 -81 395 -22 107 -51 249 -65 315 -42 213 -87 420 -92 428 -3 5 -9 32
-13 60 -10 58 -22 118 -68 317 -17 74 -43 189 -58 255 -15 66 -33 145 -40 175
-7 30 -18 75 -23 100 -6 25 -15 61 -21 80 -5 19 -19 78 -30 130 -12 52 -28
117 -37 144 -8 26 -21 74 -28 105 -16 70 -57 226 -80 306 -9 33 -21 78 -27
100 -9 40 -65 221 -140 455 -163 503 -358 911 -514 1076 -62 65 -90 83 -193
128 -128 55 -196 66 -511 82 -63 3 -122 7 -131 10 -8 2 -37 34 -64 71 -27 36
-63 81 -80 99 -16 17 -52 57 -80 88 -49 54 -85 71 -85 41 0 -18 -21 -20 -38
-3 -11 11 -159 13 -262 4 -54 -5 -245 -33 -345 -51 -49 -9 -112 -20 -140 -25
-27 -5 -128 -25 -224 -44 -96 -19 -177 -33 -182 -31 -4 3 -12 27 -18 53 -5 26
-17 76 -25 111 l-15 63 40 -6 c36 -6 39 -4 39 16 0 13 -4 37 -9 55 -5 17 -7
34 -4 37 3 3 34 -23 68 -57 79 -78 96 -92 136 -112 39 -21 45 -13 55 65 12 97
12 97 78 33 45 -44 60 -53 67 -42 12 19 30 84 38 139 5 39 9 45 31 45 28 0 44
-17 54 -58 6 -26 56 -67 81 -67 18 0 44 54 51 108 8 61 16 69 46 48 12 -9 18
-16 13 -16 -5 0 6 -16 25 -35 19 -19 39 -35 45 -35 7 0 20 -29 30 -65 11 -40
22 -65 31 -65 17 0 18 32 3 98 -7 27 -9 60 -6 74 9 34 237 265 270 273 17 5
27 14 27 26 0 12 5 16 14 13 10 -4 30 28 69 108 57 119 73 158 133 328 20 58
42 119 50 135 7 17 16 44 19 60 4 17 20 73 36 125 55 183 104 451 116 645 3
44 8 98 12 120 l7 40 72 0 c40 1 72 -2 72 -5 0 -3 25 -32 55 -64 75 -78 90
-130 90 -296 -1 -112 -4 -133 -30 -205 -27 -75 -43 -110 -82 -173 -9 -15 -47
-57 -85 -93 -71 -70 -78 -79 -53 -79 8 0 15 5 15 11 0 5 5 7 10 4 16 -10 125
101 165 168 34 57 92 196 100 242 2 11 8 38 14 60 42 163 -48 388 -183 457
-44 22 -114 30 -134 15 -8 -6 -16 -6 -22 -1 -4 5 -11 144 -13 309 -5 257 -9
314 -27 395 -33 149 -124 359 -197 456 -13 17 -23 33 -23 36 0 3 26 15 58 26
60 22 123 76 106 91 -12 11 -84 29 -169 41 -38 6 -95 22 -125 36 l-55 26 77
71 c69 64 138 160 125 174 -3 2 -14 0 -25 -6 -29 -16 -42 -14 -35 5 5 13 2 14
-13 6 -75 -39 -358 -69 -370 -39 -2 7 33 51 78 98 52 54 94 108 112 145 16 32
35 71 42 85 15 29 14 30 -56 21z m-4130 -1512 c12 -8 11 -10 -7 -10 -13 0 -23
5 -23 10 0 13 11 13 30 0z m-45 -20 c3 -5 1 -10 -4 -10 -6 0 -11 5 -11 10 0 6
2 10 4 10 3 0 8 -4 11 -10z m-75 -22 l9 -23 0 23 c1 12 5 22 10 22 5 0 8 -7 7
-17 0 -10 10 -19 27 -24 16 -4 25 -3 22 2 -4 5 2 6 11 2 12 -4 15 -3 10 5 -4
7 -1 12 10 12 16 0 16 -1 -1 -20 -33 -36 -125 -21 -125 20 0 26 9 25 20 -2z
m-62 7 c-11 -11 -68 -23 -68 -15 0 5 10 11 23 13 35 7 51 7 45 2z m19 -17 c-3
-8 -6 -5 -6 6 -1 11 2 17 5 13 3 -3 4 -12 1 -19z m100 6 c-3 -3 -12 -4 -19 -1
-8 3 -5 6 6 6 11 1 17 -2 13 -5z m1268 -454 c3 -5 1 -10 -4 -10 -6 0 -11 5
-11 10 0 6 2 10 4 10 3 0 8 -4 11 -10z m45 -60 c0 -5 -4 -10 -10 -10 -5 0 -10
5 -10 10 0 6 5 10 10 10 6 0 10 -4 10 -10z m330 -613 c11 -13 36 -54 56 -92
20 -39 56 -103 80 -142 24 -40 44 -75 44 -78 0 -3 28 -47 63 -97 34 -50 73
-107 87 -127 52 -77 187 -240 273 -331 50 -52 113 -119 140 -147 27 -29 54
-53 59 -53 5 0 6 -4 3 -10 -3 -5 -3 -10 2 -10 4 0 35 -25 68 -56 60 -55 104
-87 91 -65 -4 6 -2 11 3 11 6 0 11 -7 11 -15 0 -8 9 -15 19 -15 11 0 21 -3 23
-7 3 -8 62 -43 72 -43 3 0 0 11 -6 25 -9 19 -9 28 0 37 13 13 43 0 83 -36 38
-34 80 -58 93 -53 13 5 46 -25 63 -58 18 -33 74 -235 68 -244 -2 -5 -22 -12
-42 -15 -21 -4 -62 -15 -91 -24 -52 -16 -53 -17 -92 -96 -61 -128 -77 -171
-90 -232 -8 -39 -20 -64 -38 -79 -15 -13 -27 -33 -27 -45 0 -23 -9 -27 -108
-59 -21 -7 -41 -10 -44 -7 -6 5 21 36 32 36 17 0 105 44 105 52 0 11 -60 1
-75 -13 -5 -5 -19 -9 -32 -9 -12 0 -37 -7 -55 -15 -18 -8 -91 -37 -163 -65
-71 -28 -143 -57 -160 -64 -16 -8 -41 -17 -55 -21 -33 -9 -94 -37 -100 -45 -3
-4 -16 -13 -30 -20 -72 -38 -220 -183 -220 -216 0 -3 -17 -25 -37 -49 -21 -23
-47 -60 -59 -81 -44 -81 -74 -132 -136 -226 -34 -53 -75 -117 -90 -142 -15
-25 -32 -46 -38 -46 -5 0 -24 16 -42 36 -38 41 -123 94 -153 94 -12 0 -26 5
-33 12 -9 9 -12 9 -12 -1 0 -7 -6 -11 -12 -8 -7 2 -13 10 -13 17 0 7 -22 20
-50 28 -27 9 -53 20 -56 25 -6 9 -30 15 -64 16 -11 1 -16 5 -10 9 6 4 10 16
10 27 -1 17 23 82 66 178 5 12 18 36 29 52 11 17 23 38 26 47 4 10 10 15 15
12 5 -3 9 4 9 14 0 11 6 25 14 31 8 6 24 35 36 64 12 29 32 75 45 102 41 91
53 119 93 225 81 213 177 514 212 665 11 50 27 116 35 148 9 33 12 63 9 68 -3
6 -1 15 4 22 12 14 45 184 67 347 26 187 23 182 93 125 24 -18 64 -41 90 -50
26 -10 56 -21 67 -25 42 -17 85 -20 85 -6 0 8 -31 25 -72 40 -86 32 -193 99
-216 135 -9 14 -39 49 -67 77 -79 79 -135 202 -149 324 -9 77 31 197 77 230
49 35 91 37 117 7z m2660 -776 c0 -5 -7 -14 -15 -21 -12 -10 -15 -10 -15 2 0
8 3 18 7 21 9 10 23 9 23 -2z m-440 -411 c0 -5 -4 -10 -10 -10 -5 0 -10 5 -10
10 0 6 5 10 10 10 6 0 10 -4 10 -10z m-6050 -83 c29 -13 70 -47 70 -58 0 -6
67 -125 117 -208 12 -20 35 -61 50 -91 15 -30 34 -61 41 -68 7 -8 19 -28 27
-45 8 -18 19 -39 24 -47 5 -8 25 -42 44 -75 30 -51 90 -154 184 -313 52 -89
61 -110 68 -157 4 -28 9 -61 11 -75 2 -14 9 -54 14 -90 6 -36 15 -83 20 -105
5 -22 13 -60 19 -85 25 -114 80 -256 105 -272 6 -4 7 -8 3 -8 -5 0 -1 -12 7
-27 20 -35 58 -139 99 -268 17 -55 35 -101 39 -103 4 -2 8 -8 8 -13 0 -6 5
-15 10 -22 6 -7 17 -21 25 -32 20 -28 30 -13 55 80 43 159 59 211 78 259 l19
49 18 -49 c27 -77 46 -124 77 -194 49 -107 52 -112 76 -123 17 -8 19 -13 10
-19 -10 -8 -10 -11 0 -15 6 -2 12 -11 12 -19 0 -8 4 -14 9 -14 5 0 11 -13 13
-30 3 -20 1 -27 -6 -21 -21 15 -92 -17 -84 -39 3 -10 8 -9 20 4 31 30 88 12
88 -28 0 -25 44 -171 52 -174 5 -2 8 -14 8 -27 0 -13 5 -27 10 -30 6 -3 10
-13 10 -22 0 -9 15 -39 33 -67 19 -28 39 -66 46 -83 14 -34 41 -45 41 -18 0 8
3 15 8 15 4 0 16 13 27 30 11 16 31 34 45 39 33 12 100 70 100 87 0 8 5 14 10
14 11 0 59 50 60 61 0 17 56 69 73 69 13 0 17 5 13 15 -9 23 108 190 126 179
4 -3 5 2 1 11 -3 10 -2 20 3 24 5 3 15 17 22 31 l12 25 -6 -25 c-8 -30 -7
-337 1 -350 12 -19 68 19 122 83 57 68 162 238 198 322 15 37 18 38 25 18 5
-11 12 -68 15 -125 4 -59 12 -106 19 -110 8 -6 7 -8 -2 -8 -7 0 -10 -5 -7 -11
4 -6 18 5 33 28 14 21 28 40 31 43 23 20 74 112 222 400 10 21 36 82 41 99 4
12 14 -99 33 -339 7 -87 27 -165 48 -183 18 -15 19 -20 6 -28 -12 -7 -11 -9 2
-9 11 0 29 26 52 73 31 65 56 131 149 397 16 47 36 102 44 123 8 20 14 44 14
53 0 8 6 30 14 49 l14 34 95 -47 c52 -26 123 -60 157 -77 65 -32 133 -84 150
-115 11 -21 4 -35 -130 -250 -246 -397 -340 -550 -340 -555 0 -4 -13 -26 -30
-50 -16 -24 -30 -46 -30 -50 0 -3 -8 -18 -19 -33 -10 -15 -38 -60 -62 -100
-24 -40 -51 -84 -59 -96 -8 -13 -28 -45 -44 -72 -16 -27 -48 -82 -72 -122 -24
-40 -44 -76 -44 -81 0 -4 -13 -26 -28 -47 -15 -21 -43 -66 -61 -99 -19 -33
-54 -96 -79 -140 -66 -118 -101 -183 -135 -250 -17 -33 -35 -63 -41 -68 -14
-9 -73 -4 -246 23 -162 24 -461 65 -585 79 -49 6 -128 15 -175 21 -47 6 -105
13 -130 15 -25 2 -63 6 -85 9 -22 3 -134 12 -250 21 -115 9 -228 18 -250 20
-88 8 -243 17 -300 17 -34 0 -67 3 -73 7 -8 5 -14 41 -17 92 -2 46 -6 125 -9
174 -3 50 -8 196 -11 325 -3 129 -10 276 -16 325 -49 409 -91 621 -142 720
-21 41 -75 158 -88 192 -12 31 -17 49 -29 108 -13 62 -37 140 -49 161 -6 11
-27 69 -46 129 -20 61 -42 121 -49 135 -7 14 -21 50 -31 80 -9 30 -23 60 -30
65 -6 6 -13 15 -14 20 -1 6 -8 24 -16 40 -7 17 -19 45 -26 63 -8 17 -17 32
-20 32 -4 0 -10 12 -14 28 -3 15 -22 60 -41 100 -19 41 -34 77 -34 80 0 4 -10
27 -22 52 -12 25 -25 54 -29 65 -16 44 -72 180 -79 194 -25 48 -50 109 -50
124 0 20 35 84 61 113 10 11 19 24 20 30 0 5 25 29 55 54 30 25 61 50 68 57
19 17 89 53 103 53 7 0 13 3 13 8 0 13 63 36 115 42 61 7 122 2 155 -13z m657
-244 c-3 -10 -5 -4 -5 12 0 17 2 24 5 18 2 -7 2 -21 0 -30z m18 -542 c3 -5 1
-12 -5 -16 -5 -3 -10 1 -10 9 0 18 6 21 15 7z m5 -52 c0 -6 -4 -7 -10 -4 -5 3
-10 11 -10 16 0 6 5 7 10 4 6 -3 10 -11 10 -16z m3690 -179 c0 -5 -5 -10 -11
-10 -5 0 -7 5 -4 10 3 6 8 10 11 10 2 0 4 -4 4 -10z m-35 -21 c-4 -5 -13 -9
-20 -9 -8 0 -29 -9 -47 -20 -35 -21 -58 -26 -58 -11 0 5 21 17 48 27 26 9 51
21 56 25 12 10 28 1 21 -12z m-241 -168 c3 -5 0 -11 -8 -14 -7 -3 -36 -35 -62
-71 -59 -79 -76 -86 -31 -13 61 100 85 124 101 98z m-144 -191 c0 -5 -8 -18
-18 -28 -10 -10 -28 -35 -41 -55 -28 -45 -38 -43 -17 4 24 55 76 109 76 79z
m-80 -138 c0 -13 -12 -22 -22 -16 -10 6 -1 24 13 24 5 0 9 -4 9 -8z m-154
-307 c-9 -13 -16 -30 -16 -36 0 -18 -48 -59 -54 -46 -2 7 -8 2 -11 -10 -4 -13
-11 -23 -16 -23 -20 0 -7 43 28 95 38 56 60 72 48 35 -3 -11 -2 -20 3 -20 5 0
13 15 17 33 5 22 9 27 12 14 3 -10 -2 -29 -11 -42z m511 -1878 c3 -41 -5 -79
-16 -73 -14 9 -21 78 -10 98 13 25 23 15 26 -25z m-4118 4 c12 -8 11 -16 -3
-52 -9 -23 -24 -52 -32 -63 -8 -11 -14 -27 -14 -36 0 -9 -12 -51 -26 -95 -14
-44 -30 -100 -34 -125 -4 -25 -16 -83 -25 -130 -19 -99 -30 -406 -16 -464 6
-22 8 -43 5 -48 -3 -4 -26 7 -52 26 -93 65 -129 190 -119 406 4 78 14 146 32
210 29 108 94 246 113 243 6 -2 12 2 12 8 0 8 4 8 13 1 19 -16 70 -19 74 -5 3
7 -2 16 -11 19 -26 10 -19 36 21 76 40 41 41 42 62 29z m107 -37 c-3 -9 -6
-18 -6 -20 0 -2 -4 -4 -9 -4 -5 0 -7 9 -4 20 3 11 10 20 15 20 6 0 7 -7 4 -16z
m3940 -36 c-14 -80 -42 -492 -57 -853 -6 -154 -15 -283 -18 -288 -4 -4 -36 -9
-72 -12 -72 -6 -174 -23 -204 -35 -45 -17 -133 -40 -156 -39 l-24 0 23 16 c12
8 22 20 22 25 0 6 21 39 46 75 63 88 84 154 90 277 3 55 9 124 14 151 5 28 11
79 14 115 19 240 17 228 55 285 20 30 77 100 126 157 50 57 100 115 110 130
27 37 39 35 31 -4z m3451 -45 c-3 -10 -5 -2 -5 17 0 19 2 27 5 18 2 -10 2 -26
0 -35z m-7430 -15 c-3 -8 -6 -5 -6 6 -1 11 2 17 5 13 3 -3 4 -12 1 -19z m3598
-480 c-18 -375 -25 -424 -79 -515 -48 -81 -98 -137 -163 -180 -30 -20 -60 -44
-66 -55 -7 -10 -18 -18 -25 -18 -7 0 -28 -11 -46 -25 -18 -14 -37 -25 -43 -25
-5 0 -18 35 -28 78 -24 105 -44 144 -70 140 -25 -4 -24 -34 7 -188 11 -58 22
-114 24 -125 9 -68 101 -578 113 -630 32 -137 40 -199 36 -271 -11 -186 -57
-450 -76 -438 -5 3 -6 -2 -3 -10 4 -12 0 -16 -15 -16 -23 0 -32 -15 -35 -55 0
-14 -4 -25 -7 -25 -4 0 -9 -9 -12 -20 -3 -12 -14 -20 -27 -20 -17 0 -20 -4
-15 -22 6 -16 4 -20 -8 -15 -12 4 -14 2 -10 -10 7 -17 -102 -124 -152 -149
-16 -8 -48 -25 -70 -39 -47 -27 -55 -30 -51 -12 1 6 1 9 -1 5 -3 -5 -11 -8
-19 -8 -9 0 -13 -4 -10 -8 5 -8 -97 -72 -115 -72 -5 0 -9 -3 -9 -8 0 -16 -157
-71 -220 -77 -14 -1 -25 -3 -25 -4 0 -3 -33 -7 -125 -15 -71 -6 -141 -15 -181
-22 -21 -4 -27 -1 -25 13 0 9 -7 19 -17 21 -14 3 -18 -1 -15 -20 2 -17 -2 -24
-19 -26 -13 -2 -23 1 -23 7 0 6 -12 12 -27 12 l-28 1 29 7 c28 6 49 31 26 31
-6 0 -8 -4 -5 -10 4 -6 -9 -10 -33 -10 -28 0 -39 -4 -39 -15 0 -8 4 -15 9 -15
4 0 8 -3 8 -7 0 -22 -726 -19 -820 3 -34 8 -90 14 -184 19 -106 5 -156 13
-171 25 -9 8 -15 7 -18 -2 -11 -26 -27 16 -27 68 0 40 -4 53 -17 58 -10 3 -26
11 -37 18 -15 11 -19 11 -23 0 -3 -7 -20 -19 -39 -27 -38 -16 -66 -39 -58 -48
3 -3 12 -3 20 0 8 3 14 1 14 -5 0 -6 14 -15 32 -21 43 -15 33 -20 -29 -14 -36
4 -53 10 -53 19 0 8 -5 14 -11 14 -5 0 -7 -4 -4 -10 4 -6 -5 -10 -19 -10 -21
0 -26 5 -26 25 0 23 -3 25 -27 19 -16 -4 -30 -11 -33 -15 -8 -11 -51 1 -44 12
3 5 -4 9 -15 9 -22 0 -176 76 -200 98 -10 10 -11 16 -2 25 8 8 11 8 11 -2 0
-9 4 -8 15 3 29 28 17 35 -55 33 -38 -2 -71 -1 -72 2 -5 10 -65 41 -80 41 -7
0 -20 9 -28 20 -8 11 -20 20 -27 20 -7 0 -13 3 -13 8 0 4 -19 16 -41 27 -23
10 -44 25 -46 32 -3 7 -10 13 -16 13 -5 0 -25 16 -44 35 -19 19 -38 35 -43 35
-6 0 -10 4 -10 8 0 5 -20 29 -44 55 -49 51 -196 254 -196 271 0 12 -51 55 -87
75 -22 11 -23 15 -18 129 9 181 43 366 85 457 13 28 24 55 25 61 9 38 193 264
216 264 5 0 -2 -30 -16 -66 -14 -37 -25 -82 -25 -101 0 -31 2 -34 16 -22 13
10 17 10 24 0 12 -20 27 -5 35 32 4 17 18 61 32 97 13 36 33 90 45 120 11 30
26 69 33 85 7 17 27 73 45 125 18 52 39 102 47 111 7 8 13 24 14 35 0 10 3 13
6 7 3 -10 8 -10 19 1 10 11 23 12 56 4 23 -5 72 -13 108 -18 36 -5 117 -18
180 -29 373 -66 1066 -144 1455 -166 61 -3 144 -10 185 -15 41 -5 158 -12 260
-15 102 -3 240 -8 307 -10 104 -4 128 -2 165 15 51 22 127 76 146 102 7 10 18
18 23 18 5 0 51 39 101 88 95 91 97 93 150 157 18 22 64 73 102 112 37 40 79
86 91 103 13 18 61 71 107 119 45 48 114 122 152 164 37 42 72 77 77 77 6 0 7
-47 4 -112z m4954 -190 c0 -31 -1 -31 -10 -10 -5 13 -7 28 -3 33 10 16 14 9
13 -23z m21 -103 c0 -17 -2 -17 -10 -5 -5 8 -10 24 -10 35 0 17 2 17 10 5 5
-8 10 -24 10 -35z m14 -41 c3 -9 6 -23 6 -32 -1 -15 -3 -14 -15 2 -17 22 -20
46 -6 46 5 0 12 -7 15 -16z m-1024 -1104 c0 -5 -4 -10 -10 -10 -5 0 -10 5 -10
10 0 6 5 10 10 10 6 0 10 -4 10 -10z m79 -203 c41 -149 141 -475 197 -641 24
-70 41 -132 38 -137 -6 -11 -384 -12 -384 -1 0 4 7 32 15 62 35 127 47 203 54
334 6 103 11 140 22 146 14 8 15 32 6 214 -7 140 18 151 52 23z m-8319 -217
c0 -5 -4 -10 -10 -10 -5 0 -10 5 -10 10 0 6 5 10 10 10 6 0 10 -4 10 -10z
m4091 -286 c6 -8 24 -40 41 -71 32 -64 74 -136 100 -173 9 -13 15 -27 12 -32
-7 -11 -384 -10 -384 1 0 5 6 14 14 20 22 19 72 132 85 192 6 29 16 58 22 65
14 17 95 15 110 -2z m3054 -14 c-3 -5 -18 -10 -33 -9 l-27 1 25 8 c35 11 42
11 35 0z m2761 -304 c62 -7 116 -16 122 -20 6 -3 35 -8 64 -11 68 -6 102 -11
160 -24 26 -6 77 -13 115 -15 38 -3 82 -10 98 -16 17 -7 69 -22 116 -35 48
-12 97 -30 110 -39 13 -9 31 -16 41 -16 19 0 98 -70 98 -87 0 -6 -6 -16 -14
-22 -10 -8 -19 -6 -39 9 -27 22 -52 26 -62 10 -3 -5 1 -10 10 -10 20 0 64 -49
65 -72 0 -24 -43 -50 -77 -46 -22 2 -29 -1 -31 -19 -3 -18 -11 -22 -60 -26
-31 -3 -106 -12 -167 -20 -60 -9 -168 -22 -240 -31 -71 -8 -155 -18 -185 -22
-30 -3 -140 -8 -245 -9 -104 -1 -248 -6 -320 -10 -152 -8 -266 5 -335 40 -39
20 -128 104 -131 123 -9 74 -6 80 39 87 218 35 527 157 634 250 26 23 73 43
103 44 11 0 70 -6 131 -13z m-9118 -128 c-3 -7 -13 -15 -24 -17 -16 -3 -17 -1
-5 13 16 19 34 21 29 4z m562 -128 c0 -5 -7 -10 -16 -10 -8 0 -12 5 -9 10 3 6
10 10 16 10 5 0 9 -4 9 -10z m-67 -17 c-7 -2 -19 -2 -25 0 -7 3 -2 5 12 5 14
0 19 -2 13 -5z m-178 -23 c3 -5 -1 -10 -9 -10 -8 0 -18 5 -21 10 -3 6 1 10 9
10 8 0 18 -4 21 -10z m260 -50 c8 -13 -15 -13 -35 0 -12 8 -11 10 7 10 12 0
25 -4 28 -10z"/>
<path d="M16080 26394 c0 -8 5 -12 10 -9 6 4 8 11 5 16 -9 14 -15 11 -15 -7z"/>
<path d="M14601 24074 c0 -11 3 -14 6 -6 3 7 2 16 -1 19 -3 4 -6 -2 -5 -13z"/>
<path d="M13161 23534 c0 -11 3 -14 6 -6 3 7 2 16 -1 19 -3 4 -6 -2 -5 -13z"/>
<path d="M12065 19094 c23 -17 18 -27 -12 -19 -23 5 -25 4 -14 -9 14 -17 66
-22 75 -7 3 5 15 7 26 4 15 -4 20 0 20 15 0 17 -8 21 -55 24 -43 2 -52 0 -40
-8z"/>
<path d="M12210 19055 c-10 -13 -9 -15 9 -15 12 0 21 6 21 15 0 8 -4 15 -9 15
-5 0 -14 -7 -21 -15z"/>
<path d="M14556 19024 c-6 -16 0 -19 53 -28 39 -7 39 -7 -11 21 -30 18 -37 19
-42 7z"/>
<path d="M14720 18994 c0 -17 22 -14 28 4 2 7 -3 12 -12 12 -9 0 -16 -7 -16
-16z"/>
<path d="M12223 18993 c-15 -6 -17 -43 -3 -43 12 0 24 25 18 38 -1 5 -9 7 -15
5z"/>
<path d="M12250 18950 c-8 -5 -12 -11 -9 -14 3 -3 14 1 25 9 21 16 8 20 -16 5z"/>
<path d="M14656 18914 c-9 -22 -8 -24 8 -18 20 8 29 34 12 34 -8 0 -17 -7 -20
-16z"/>
<path d="M14226 18911 c-3 -4 -19 -11 -36 -14 -21 -5 -30 -12 -30 -27 0 -24
13 -26 30 -5 7 8 20 15 29 15 9 0 22 9 29 20 10 17 10 20 -2 20 -8 0 -17 -4
-20 -9z"/>
<path d="M14048 18883 c7 -3 16 -2 19 1 4 3 -2 6 -13 5 -11 0 -14 -3 -6 -6z"/>
<path d="M13966 18866 c3 -8 12 -12 20 -9 21 8 17 23 -6 23 -13 0 -18 -5 -14
-14z"/>
<path d="M13836 18841 c-3 -5 8 -14 24 -20 27 -9 30 -8 30 10 0 14 -7 19 -24
19 -14 0 -27 -4 -30 -9z"/>
<path d="M12960 18829 c0 -5 5 -7 10 -4 6 3 10 8 10 11 0 2 -4 4 -10 4 -5 0
-10 -5 -10 -11z"/>
<path d="M12885 18801 c3 -5 -3 -12 -12 -14 -10 -3 0 -5 22 -6 37 0 39 1 21
14 -22 17 -40 20 -31 6z"/>
<path d="M14077 18799 c7 -7 15 -10 18 -7 3 3 -2 9 -12 12 -14 6 -15 5 -6 -5z"/>
<path d="M14123 18803 c9 -2 23 -2 30 0 6 3 -1 5 -18 5 -16 0 -22 -2 -12 -5z"/>
<path d="M13858 18781 c-19 -22 -14 -31 17 -31 28 0 34 7 28 31 -7 24 -24 24
-45 0z"/>
<path d="M13938 18793 c7 -3 16 -2 19 1 4 3 -2 6 -13 5 -11 0 -14 -3 -6 -6z"/>
<path d="M14160 18790 c-24 -8 -23 -8 8 -9 17 -1 32 4 32 9 0 11 -5 11 -40 0z"/>
<path d="M13015 18780 c-3 -5 1 -10 10 -10 9 0 13 5 10 10 -3 6 -8 10 -10 10
-2 0 -7 -4 -10 -10z"/>
<path d="M13328 18773 c6 -2 18 -2 25 0 6 3 1 5 -13 5 -14 0 -19 -2 -12 -5z"/>
<path d="M13738 18763 c7 -3 16 -2 19 1 4 3 -2 6 -13 5 -11 0 -14 -3 -6 -6z"/>
<path d="M21714 18951 c3 -5 15 -7 26 -4 28 7 25 13 -6 13 -14 0 -23 -4 -20
-9z"/>
<path d="M21786 18952 c-14 -13 -4 -22 25 -22 16 0 28 4 25 9 -7 11 -43 21
-50 13z"/>
<path d="M21850 18930 c0 -12 8 -12 35 0 18 8 17 9 -7 9 -16 1 -28 -3 -28 -9z"/>
<path d="M21498 18863 c-27 -2 -48 -8 -48 -14 0 -9 82 -14 195 -11 32 1 62 -3
65 -8 3 -5 11 -5 20 0 8 5 12 12 8 15 -11 11 -103 21 -140 14 -21 -3 -38 -2
-38 3 0 4 -3 7 -7 6 -5 -1 -29 -3 -55 -5z"/>
<path d="M21890 18821 c0 -5 12 -14 28 -19 15 -5 35 -13 45 -17 12 -5 17 -2
17 9 0 9 -8 16 -19 16 -11 0 -23 5 -26 10 -8 12 -45 13 -45 1z"/>
<path d="M21995 18770 c4 -6 11 -8 16 -5 14 9 11 15 -7 15 -8 0 -12 -5 -9 -10z"/>
<path d="M10098 29553 c-20 -5 -24 -21 -5 -20 38 1 57 -5 57 -18 0 -7 6 -18
14 -22 8 -4 51 -80 96 -168 79 -154 110 -204 110 -177 0 16 -59 150 -80 182
-9 14 -30 49 -45 78 -16 28 -32 52 -36 52 -4 0 -5 8 -2 19 3 12 -7 28 -35 50
-40 31 -43 32 -74 24z"/>
<path d="M10050 29505 c0 -9 5 -15 11 -13 6 2 11 8 11 13 0 5 -5 11 -11 13 -6
2 -11 -4 -11 -13z"/>
<path d="M10047 29474 c-16 -17 8 -197 30 -213 4 -3 9 -21 10 -39 2 -34 44
-164 69 -213 7 -14 10 -36 7 -47 -4 -16 -1 -22 11 -22 20 0 20 11 0 80 -8 30
-19 69 -24 85 -5 17 -22 77 -39 135 -17 58 -34 121 -36 140 -10 67 -20 102
-28 94z"/>
<path d="M10526 29091 c-3 -4 12 -14 33 -21 30 -10 47 -26 80 -76 23 -35 48
-79 56 -98 22 -52 18 -139 -10 -244 -14 -51 -25 -95 -25 -98 0 -2 9 5 20 16
11 11 20 25 20 30 0 6 4 10 9 10 16 0 41 116 42 201 1 89 -6 111 -67 204 -16
25 -83 72 -96 68 -4 -2 -19 2 -32 7 -14 5 -28 6 -30 1z"/>
<path d="M10630 28550 c0 -5 5 -10 11 -10 5 0 7 5 4 10 -3 6 -8 10 -11 10 -2
0 -4 -4 -4 -10z"/>
<path d="M9965 28540 c3 -5 8 -10 11 -10 2 0 4 5 4 10 0 6 -5 10 -11 10 -5 0
-7 -4 -4 -10z"/>
<path d="M9943 28428 c-6 -48 -6 -88 -1 -94 5 -7 8 -16 7 -20 -3 -18 1 -34 9
-34 4 0 8 52 8 115 1 63 -2 115 -5 115 -4 0 -12 -37 -18 -82z"/>
<path d="M9970 28259 c0 -8 9 -20 20 -27 11 -7 20 -18 20 -25 0 -17 54 -69 63
-61 3 4 -2 16 -12 28 -75 83 -91 99 -91 85z"/>
<path d="M18670 26925 c-16 -19 0 -19 26 0 16 12 16 14 3 15 -9 0 -22 -7 -29
-15z"/>
<path d="M11343 20588 c-17 -18 -47 -55 -67 -83 -21 -27 -67 -80 -103 -117
-57 -57 -69 -65 -88 -58 -31 12 -101 -10 -120 -38 -12 -16 -15 -41 -12 -100 4
-99 28 -142 98 -178 55 -27 59 -26 27 11 -23 27 -25 36 -29 130 -1 37 3 70 12
87 8 14 61 63 119 109 136 107 135 107 155 157 10 23 20 42 24 42 4 0 15 16
24 35 22 46 2 47 -40 3z m-313 -338 c-25 -35 -31 -131 -11 -169 7 -12 10 -25
8 -28 -7 -6 -27 32 -34 65 -16 78 4 162 39 162 19 0 19 -1 -2 -30z"/>
<path d="M11118 20036 c-6 -30 -1 -39 32 -56 13 -7 38 -29 55 -48 50 -60 74
-82 85 -82 5 0 10 3 10 8 -1 11 -69 82 -80 82 -6 0 -11 5 -11 10 -1 6 -3 15
-4 20 -1 6 -3 13 -4 18 -2 12 -59 72 -69 72 -5 0 -12 -11 -14 -24z"/>
<path d="M23000 16585 l0 -2695 -1862 2 -1863 3 -3 983 -2 982 -1795 0 -1795
0 0 -4015 0 -4015 1795 0 1795 0 0 1805 0 1804 2138 4 c2298 3 2173 1 2451 52
502 93 1038 324 1486 639 686 482 1162 1129 1335 1816 67 266 64 183 70 1525
l5 1220 630 -1 c523 0 660 -3 805 -18 497 -49 878 -155 1190 -331 52 -30 110
-65 129 -79 l35 -26 2103 0 c1284 0 2103 4 2103 9 0 21 -133 328 -201 463
-235 470 -500 840 -853 1194 -358 357 -687 591 -1161 824 -337 166 -541 241
-910 335 -374 94 -704 145 -1300 197 -93 8 -1017 12 -3227 15 l-3098 4 0
-2696z"/>
<path d="M29936 15853 c217 -329 351 -732 429 -1293 43 -310 70 -859 60 -1225
-18 -671 -67 -1093 -169 -1465 -128 -466 -412 -877 -762 -1102 -184 -119 -459
-207 -805 -258 -316 -46 -448 -53 -1211 -57 l-728 -5 -1 1324 c0 727 -3 1316
-6 1308 -72 -213 -186 -429 -341 -645 -220 -306 -516 -593 -827 -802 -486
-325 -1060 -515 -1700 -563 -77 -5 -305 -10 -507 -10 l-368 0 0 -1605 0 -1606
3013 4 c2256 2 3042 6 3132 15 836 84 1646 250 2125 434 686 264 1391 803
1875 1433 323 420 612 970 754 1434 141 459 228 987 273 1661 17 260 17 1200
0 1405 -48 564 -120 992 -249 1473 l-46 172 -1980 0 -1979 0 18 -27z"/>
<path d="M11805 7144 c-288 -39 -490 -117 -654 -252 -129 -108 -212 -225 -256
-364 -86 -270 -48 -478 101 -553 52 -27 197 -56 210 -43 3 4 -2 28 -12 55 -27
68 -27 305 -1 416 53 224 200 375 422 432 73 19 233 40 242 32 3 -3 -60 -311
-140 -684 -81 -373 -189 -878 -242 -1123 -52 -245 -98 -453 -101 -462 -5 -17
11 -18 245 -18 138 0 251 3 251 8 0 4 78 372 174 817 275 1277 308 1430 310
1432 1 1 44 -4 96 -12 52 -8 153 -21 225 -30 71 -9 131 -17 132 -19 2 -1 -13
-74 -32 -162 -18 -87 -124 -579 -234 -1093 -111 -513 -201 -935 -201 -937 0
-3 111 -3 247 -2 l248 3 28 155 c46 258 147 799 168 900 33 162 122 311 206
346 49 21 106 18 138 -8 80 -62 75 -166 -25 -608 -63 -277 -74 -350 -68 -452
7 -113 36 -185 101 -252 79 -80 139 -101 297 -101 107 0 134 3 186 23 82 31
187 113 247 192 27 36 52 66 56 67 3 2 14 -17 24 -40 43 -106 160 -196 302
-232 75 -19 248 -19 337 0 207 43 356 193 412 411 9 34 16 65 16 68 0 3 -21
-10 -47 -30 -99 -76 -272 -144 -364 -144 -20 0 -60 12 -90 28 -45 23 -58 36
-81 82 -31 61 -45 166 -34 242 l7 45 71 7 c39 3 112 20 162 37 351 117 571
400 554 708 -13 219 -139 311 -408 298 -136 -6 -208 -24 -312 -76 -274 -139
-469 -443 -552 -864 -14 -67 -27 -166 -31 -219 -6 -91 -10 -102 -44 -155 -61
-93 -125 -128 -218 -121 -47 4 -61 10 -84 36 -56 63 -51 137 36 491 70 281 87
381 88 501 0 162 -49 271 -154 337 -67 42 -141 57 -260 51 -85 -4 -106 -9
-171 -40 -40 -19 -101 -58 -135 -87 -39 -32 -63 -46 -63 -37 0 20 92 446 125
576 36 145 82 283 120 361 l32 66 -58 -24 c-32 -13 -102 -30 -156 -38 -179
-27 -365 -18 -807 41 -283 37 -412 41 -581 18z m3332 -1009 c46 -32 55 -136
23 -259 -27 -106 -71 -185 -153 -272 -56 -60 -86 -82 -151 -114 -44 -21 -104
-42 -133 -46 l-52 -6 24 90 c78 290 213 540 324 599 51 27 88 29 118 8z"/>
<path d="M17215 7145 c-448 -83 -856 -377 -966 -697 -27 -77 -36 -219 -20
-293 15 -66 61 -137 107 -164 43 -26 123 -48 192 -54 28 -2 52 -3 52 -2 0 2
-7 19 -15 39 -26 61 -35 176 -25 288 30 315 168 526 425 649 102 49 209 76
355 90 254 24 410 -47 490 -224 159 -351 -97 -950 -457 -1068 -31 -11 -66 -19
-78 -19 l-23 0 29 138 c16 75 70 326 119 558 50 231 90 428 90 437 0 13 -7 15
-27 12 -16 -3 -127 -18 -247 -35 -120 -16 -222 -32 -226 -37 -6 -7 -59 -250
-361 -1673 -54 -256 -101 -475 -104 -487 l-5 -23 247 0 248 0 105 490 104 490
40 0 c65 0 225 27 301 50 91 29 228 99 308 160 231 175 379 481 364 750 -19
310 -205 526 -527 611 -111 29 -373 36 -495 14z"/>
<path d="M21567 7145 c-143 -31 -281 -131 -361 -263 -76 -125 -88 -169 -245
-917 -166 -788 -282 -1331 -287 -1347 -3 -11 -43 -29 -117 -54 -151 -49 -296
-124 -358 -185 -95 -93 -140 -248 -109 -378 28 -119 138 -229 268 -266 72 -22
216 -21 296 0 75 20 164 67 221 117 93 82 180 246 219 413 15 65 116 540 315
1480 45 209 83 390 86 403 5 21 9 22 134 22 l128 0 9 65 10 65 -123 0 c-68 0
-123 4 -123 9 0 37 74 343 93 385 45 98 127 166 202 166 17 0 48 -9 71 -19 50
-23 67 -60 62 -136 l-3 -56 80 3 80 3 3 101 c3 127 -17 190 -88 267 -107 117
-279 163 -463 122z m-943 -2762 c-44 -203 -69 -265 -127 -322 -86 -82 -227
-30 -227 84 0 93 50 174 147 238 57 37 201 106 224 107 4 0 -4 -48 -17 -107z"/>
<path d="M27160 7150 c-240 -33 -482 -124 -668 -252 -95 -65 -223 -193 -279
-277 -117 -176 -150 -406 -77 -542 35 -64 87 -102 169 -123 49 -12 155 -28
155 -22 0 0 -10 26 -22 56 -18 46 -22 74 -22 175 1 140 14 220 55 326 69 180
203 324 387 418 50 25 182 67 252 80 395 70 620 -61 690 -399 48 -231 8 -719
-86 -1048 -154 -543 -417 -801 -687 -674 -54 25 -67 35 -63 49 5 17 227 1055
353 1651 30 145 54 265 52 267 -7 6 -492 -64 -499 -72 -4 -4 -40 -161 -80
-348 -39 -187 -143 -675 -231 -1084 -87 -409 -159 -745 -159 -747 0 -3 111 -3
247 -2 l247 3 12 58 c6 32 13 60 16 62 2 3 29 -14 58 -36 100 -75 218 -124
324 -135 328 -32 683 334 869 897 83 251 119 474 120 739 0 143 -4 194 -22
279 -79 373 -289 601 -631 687 -77 19 -379 28 -480 14z"/>
<path d="M25105 6830 c-27 -5 -125 -18 -216 -30 l-167 -22 -47 -217 c-25 -119
-49 -226 -52 -238 -5 -21 -11 -23 -63 -23 l-57 0 -7 -42 c-4 -24 -9 -53 -13
-65 -5 -22 -2 -23 52 -23 56 0 57 0 51 -27 -3 -16 -49 -232 -102 -482 l-96
-453 -72 -75 c-140 -149 -283 -243 -414 -273 -81 -19 -218 -16 -270 5 -86 35
-122 116 -122 274 0 318 151 774 310 938 90 92 180 97 214 11 21 -52 20 -109
-4 -203 -11 -43 -20 -79 -20 -80 0 -2 16 -10 36 -20 45 -21 112 -21 156 -1 87
42 132 202 93 333 -42 143 -163 212 -368 213 -279 0 -513 -135 -684 -398 -124
-189 -213 -455 -238 -717 -7 -68 -9 -72 -64 -128 -161 -167 -313 -239 -508
-240 -124 0 -176 25 -215 101 -31 62 -45 174 -32 265 l9 62 59 7 c275 34 536
205 655 427 64 121 89 306 57 415 -41 137 -161 206 -359 206 -329 0 -590 -180
-762 -525 -109 -218 -167 -460 -167 -690 1 -207 38 -322 136 -421 101 -100
229 -139 436 -131 157 6 230 25 365 91 112 55 201 122 309 232 l84 86 12 -53
c41 -179 166 -302 347 -345 95 -22 309 -14 411 15 177 51 301 129 460 288
l112 113 0 -53 c0 -28 7 -81 15 -116 43 -181 162 -269 350 -259 152 8 255 97
323 274 l19 50 -67 0 c-108 -1 -140 28 -140 127 1 29 54 300 119 602 l118 550
105 3 106 3 6 42 c4 23 9 52 13 65 5 22 4 22 -96 22 -91 0 -101 2 -101 18 0
14 83 408 105 500 5 20 2 22 -32 21 -21 -1 -60 -5 -88 -9z m-2412 -712 c46
-62 30 -222 -34 -357 -77 -158 -247 -295 -393 -317 l-48 -7 7 34 c42 210 147
461 243 578 79 98 181 129 225 69z"/>
<path d="M30750 6810 c-107 -15 -204 -29 -215 -31 -17 -4 -26 -34 -71 -239
l-50 -235 -57 -3 c-62 -3 -56 4 -76 -89 l-9 -43 54 0 c40 0 54 -4 54 -14 0
-17 -184 -885 -205 -968 -32 -127 -119 -259 -196 -299 -46 -23 -119 -25 -159
-4 -73 38 -78 122 -26 367 19 90 76 357 126 593 50 237 92 436 95 443 3 9 -50
12 -245 12 l-249 0 -11 -57 c-6 -32 -15 -69 -20 -83 -8 -25 -8 -25 -9 -2 -2
57 -59 117 -136 143 -52 17 -225 17 -295 0 -84 -21 -209 -84 -287 -145 -185
-144 -340 -428 -413 -751 -30 -133 -38 -356 -16 -464 51 -250 203 -381 443
-381 173 0 331 83 456 241 55 68 67 71 67 18 0 -32 50 -133 83 -167 58 -61
120 -85 228 -90 200 -9 372 75 509 249 l37 47 13 -41 c50 -167 154 -247 330
-255 210 -9 389 75 536 251 l49 57 30 -62 c58 -120 164 -199 312 -234 94 -22
308 -14 411 15 143 41 294 131 421 250 36 33 66 59 66 58 1 -1 10 -24 20 -52
68 -185 234 -284 477 -285 203 0 384 64 512 181 144 131 188 284 167 576 -34
459 -42 572 -56 817 -9 149 -17 271 -18 272 -2 2 -501 -66 -503 -69 -1 -1 -27
-78 -59 -172 -144 -427 -324 -814 -404 -872 -49 -35 -107 -114 -123 -165 -14
-48 -110 -140 -198 -192 -159 -93 -383 -119 -485 -56 -66 41 -102 173 -88 319
l8 75 85 12 c308 46 566 243 668 512 23 59 26 83 27 192 0 107 -3 132 -21 171
-29 62 -85 114 -153 141 -49 19 -74 22 -196 22 -159 0 -225 -13 -340 -71 -172
-85 -319 -242 -418 -445 -93 -189 -152 -407 -166 -613 -4 -60 -13 -121 -21
-134 -22 -43 -103 -122 -144 -143 -56 -29 -153 -35 -195 -14 -76 40 -72 84 64
721 63 296 115 540 115 542 0 1 47 3 104 3 l104 0 6 28 c3 15 8 44 12 65 l6
37 -101 0 c-55 0 -101 4 -101 8 0 4 25 122 55 261 30 139 55 257 55 262 0 14
-56 9 -270 -21z m1321 -686 c51 -55 34 -236 -37 -376 -51 -102 -165 -215 -264
-262 -68 -33 -154 -55 -166 -43 -8 8 45 202 83 301 72 190 153 318 239 374 61
41 110 43 145 6z m-2680 -42 c43 -24 62 -67 56 -121 -3 -25 -42 -217 -87 -426
-57 -269 -89 -398 -110 -442 -95 -206 -314 -272 -394 -118 -19 36 -21 56 -20
205 0 134 4 183 23 260 51 220 138 426 224 531 97 120 219 164 308 111z m3563
-254 c4 -62 18 -225 32 -363 27 -282 29 -332 13 -407 -21 -97 -69 -161 -151
-204 -38 -20 -138 -29 -202 -20 -83 13 -145 92 -146 184 0 43 0 43 22 28 13
-9 43 -16 70 -16 39 0 54 6 84 32 42 37 64 82 64 130 0 37 -29 91 -58 109 -18
11 -15 20 53 163 80 165 153 338 181 428 9 31 20 55 24 53 4 -2 10 -55 14
-117z"/>
<path d="M18914 6319 c-385 -64 -686 -462 -769 -1014 -62 -413 58 -662 352
-731 94 -22 309 -14 411 15 167 48 289 122 437 265 54 53 99 95 100 93 1 -1
-15 -81 -36 -177 -21 -96 -38 -178 -39 -183 0 -4 111 -6 247 -5 l247 3 54 255
c206 982 219 1040 243 1067 42 45 138 102 186 109 71 10 88 -3 108 -85 9 -39
26 -82 37 -96 29 -37 83 -50 149 -36 66 14 108 38 143 83 126 166 18 417 -180
418 -101 0 -209 -45 -325 -138 -41 -32 -79 -61 -85 -65 -7 -4 -3 34 11 98 l23
105 -248 0 -247 0 -6 -27 c-3 -16 -56 -264 -117 -552 l-110 -523 -48 -56 c-99
-116 -245 -224 -357 -262 -70 -24 -195 -41 -255 -34 -91 11 -136 39 -173 109
-19 35 -22 56 -22 180 l0 140 65 7 c36 4 103 19 150 34 344 107 572 377 574
679 1 184 -77 289 -242 324 -61 13 -202 13 -278 0z m211 -175 c30 -12 45 -60
45 -141 0 -126 -34 -223 -116 -339 -56 -79 -124 -135 -218 -180 -63 -30 -150
-53 -161 -42 -9 8 62 250 100 343 105 260 242 400 350 359z"/>
</g>
</svg>
